        <svg {...props} width="988" height="349" viewBox="0 0 988 349" fill="none" xmlns="http://www.w3.org/2000/svg">
            <rect width="988" height="349" rx="80" fill="#18092F" fill-opacity="0.9" />
            <rect x="0.5" y="0.5" width="987" height="348" rx="79.5" stroke="#8B5CF6" stroke-opacity="0.3" />
            <rect x="35" y="35" width="918" height="279" rx="60" fill="#210C48" fill-opacity="0.9" />
            <rect x="38" y="38" width="912" height="273" rx="57" stroke="#8B5CF6" stroke-opacity="0.3" strokeWidth="6" />
            <g filter="url(#filter0_i_438_100)">
                <rect x="71" y="71" width="846" height="207" rx="40" fill="#2E1065" fill-opacity="0.8" />
            </g>
            <path fill-rule="evenodd" clip-rule="evenodd" d="M207.439 129.16V144.442C207.439 144.712 207.549 144.971 207.743 145.159L215.333 152.526C215.706 152.889 216.206 153.091 216.726 153.091H222.066C222.597 153.091 223.105 152.88 223.48 152.505L230.828 145.158C231.016 144.97 231.121 144.716 231.121 144.451V129.16L228.547 126.586C227.766 125.805 226.499 125.805 225.718 126.586L223.144 129.16V143.865C223.144 144.417 222.696 144.865 222.144 144.865H216.416C215.864 144.865 215.416 144.417 215.416 143.865V129.16L212.842 126.586C212.061 125.805 210.794 125.805 210.013 126.586L207.439 129.16ZM174.16 186.121H189.442C189.712 186.121 189.971 186.012 190.159 185.818L197.526 178.227C197.889 177.854 198.091 177.355 198.091 176.834V171.494C198.091 170.964 197.88 170.455 197.505 170.08L190.158 162.732C189.97 162.545 189.716 162.439 189.451 162.439H174.16L171.586 165.014C170.805 165.795 170.805 167.061 171.586 167.842L174.16 170.416H188.865C189.417 170.416 189.865 170.864 189.865 171.416V177.144C189.865 177.696 189.417 178.144 188.865 178.144H174.16L171.586 180.718C170.805 181.499 170.805 182.766 171.586 183.547L174.16 186.121ZM189.808 161.554L179.003 150.748V147.107C179.003 146.003 179.898 145.107 181.003 145.107H184.643L195.041 155.505C195.432 155.896 196.065 155.896 196.455 155.505L200.505 151.455C200.896 151.065 200.896 150.431 200.505 150.041L190.108 139.643V136.002C190.108 134.898 191.003 134.002 192.108 134.002L195.748 134.002L206.56 144.814C206.748 145.002 206.853 145.256 206.853 145.522L206.853 155.913C206.853 156.443 206.642 156.952 206.267 157.327L202.491 161.103C202.123 161.471 201.627 161.681 201.107 161.689L190.53 161.847C190.26 161.851 190 161.745 189.808 161.554ZM243.157 133.975L232.351 144.78C232.16 144.972 232.054 145.232 232.058 145.502L232.216 156.079C232.224 156.599 232.434 157.095 232.802 157.463L236.578 161.239C236.953 161.614 237.462 161.825 237.992 161.825L248.383 161.825C248.649 161.825 248.903 161.72 249.09 161.532L259.902 150.72V147.079C259.902 145.975 259.007 145.079 257.902 145.079L254.262 145.079L243.864 155.477C243.474 155.868 242.84 155.868 242.45 155.477L238.4 151.427C238.009 151.037 238.009 150.403 238.4 150.013L248.798 139.615V135.975C248.798 134.87 247.902 133.975 246.798 133.975L243.157 133.975ZM231.121 204.118V219.4L228.546 221.974C227.765 222.755 226.499 222.755 225.718 221.974L223.144 219.4V204.695C223.144 204.143 222.696 203.695 222.144 203.695H216.416C215.864 203.695 215.416 204.143 215.416 204.695L215.416 219.4L212.842 221.974C212.061 222.755 210.794 222.755 210.013 221.974L207.439 219.4V204.11C207.439 203.844 207.544 203.59 207.732 203.402L215.08 196.055C215.455 195.68 215.963 195.469 216.494 195.469H221.834C222.354 195.469 222.854 195.672 223.227 196.034L230.817 203.401C231.011 203.589 231.121 203.848 231.121 204.118ZM264.4 162.439H249.118C248.848 162.439 248.589 162.549 248.401 162.743L241.034 170.333C240.671 170.706 240.469 171.206 240.469 171.726V177.066C240.469 177.597 240.68 178.105 241.055 178.48L248.402 185.828C248.59 186.016 248.844 186.121 249.109 186.121H264.4L266.974 183.547C267.755 182.766 267.755 181.499 266.974 180.718L264.4 178.144H249.695C249.143 178.144 248.695 177.696 248.695 177.144V171.416C248.695 170.864 249.143 170.416 249.695 170.416H264.4L266.974 167.842C267.755 167.061 267.755 165.794 266.974 165.013L264.4 162.439ZM248.751 187.006L259.557 197.812V201.453C259.557 202.557 258.662 203.453 257.557 203.453H253.917L243.519 193.055C243.128 192.664 242.495 192.664 242.105 193.055L238.055 197.105C237.664 197.495 237.664 198.129 238.055 198.519L248.452 208.917V212.557C248.452 213.662 247.557 214.557 246.452 214.557H242.812L232 203.745C231.812 203.558 231.707 203.304 231.707 203.038L231.707 192.647C231.707 192.117 231.918 191.608 232.293 191.233L236.069 187.457C236.437 187.089 236.933 186.879 237.453 186.871L248.029 186.713C248.3 186.709 248.56 186.815 248.751 187.006ZM196.093 214.529L206.899 203.723C207.09 203.532 207.196 203.271 207.192 203.001L207.034 192.425C207.026 191.905 206.816 191.408 206.449 191.04L202.672 187.264C202.297 186.889 201.789 186.678 201.258 186.678L190.867 186.678C190.602 186.678 190.347 186.784 190.16 186.971L179.348 197.783L179.348 201.424C179.348 202.528 180.243 203.424 181.348 203.424H184.989L195.386 193.026C195.777 192.635 196.41 192.635 196.801 193.026L200.851 197.076C201.241 197.467 201.241 198.1 200.851 198.49L190.453 208.888V212.529C190.453 213.633 191.348 214.529 192.453 214.529H196.093Z" fill="white" />
            <path d="M323.552 147.455H333.54L350.905 189.855H351.544L368.909 147.455H378.897V202H371.066V162.529H370.56L354.474 201.92H347.975L331.888 162.502H331.382V202H323.552V147.455ZM402.128 202.906C399.535 202.906 397.192 202.426 395.096 201.467C393.001 200.491 391.341 199.079 390.116 197.233C388.909 195.386 388.305 193.122 388.305 190.441C388.305 188.133 388.749 186.233 389.637 184.741C390.524 183.25 391.723 182.069 393.232 181.199C394.741 180.329 396.428 179.672 398.292 179.228C400.157 178.784 402.057 178.447 403.992 178.216C406.442 177.932 408.431 177.701 409.958 177.524C411.485 177.328 412.595 177.018 413.287 176.592C413.98 176.165 414.326 175.473 414.326 174.514V174.328C414.326 172.002 413.669 170.2 412.355 168.921C411.059 167.643 409.123 167.004 406.549 167.004C403.868 167.004 401.755 167.598 400.21 168.788C398.683 169.96 397.627 171.265 397.041 172.703L389.557 170.999C390.444 168.513 391.741 166.506 393.445 164.979C395.167 163.435 397.147 162.316 399.384 161.624C401.622 160.913 403.974 160.558 406.442 160.558C408.076 160.558 409.807 160.754 411.636 161.144C413.482 161.517 415.205 162.21 416.803 163.222C418.419 164.234 419.741 165.681 420.771 167.563C421.801 169.427 422.316 171.851 422.316 174.834V202H414.539V196.407H414.219C413.704 197.437 412.932 198.449 411.902 199.443C410.872 200.437 409.55 201.263 407.934 201.92C406.318 202.577 404.383 202.906 402.128 202.906ZM403.859 196.513C406.061 196.513 407.943 196.078 409.505 195.208C411.085 194.338 412.284 193.202 413.101 191.799C413.935 190.379 414.352 188.861 414.352 187.245V181.972C414.068 182.256 413.518 182.522 412.701 182.771C411.902 183.001 410.988 183.206 409.958 183.383C408.928 183.543 407.925 183.694 406.948 183.836C405.972 183.96 405.155 184.067 404.498 184.156C402.953 184.351 401.542 184.679 400.263 185.141C399.003 185.603 397.991 186.268 397.227 187.138C396.481 187.991 396.108 189.127 396.108 190.548C396.108 192.518 396.836 194.01 398.292 195.022C399.748 196.016 401.604 196.513 403.859 196.513ZM440.247 188.124L440.194 178.403H441.579L457.878 161.091H467.413L448.823 180.8H447.571L440.247 188.124ZM432.923 202V147.455H440.886V202H432.923ZM458.757 202L444.109 182.558L449.595 176.991L468.532 202H458.757ZM490.618 202.826C486.587 202.826 483.116 201.964 480.204 200.242C477.31 198.502 475.072 196.061 473.492 192.918C471.93 189.757 471.148 186.055 471.148 181.812C471.148 177.621 471.93 173.928 473.492 170.732C475.072 167.536 477.274 165.042 480.097 163.248C482.938 161.455 486.259 160.558 490.058 160.558C492.366 160.558 494.604 160.94 496.77 161.703C498.936 162.467 500.88 163.665 502.603 165.299C504.325 166.933 505.683 169.054 506.678 171.664C507.672 174.257 508.169 177.408 508.169 181.119V183.942H475.65V177.977H500.365C500.365 175.881 499.939 174.026 499.087 172.41C498.235 170.777 497.036 169.489 495.491 168.548C493.964 167.607 492.171 167.137 490.112 167.137C487.874 167.137 485.921 167.687 484.252 168.788C482.601 169.871 481.322 171.292 480.417 173.049C479.529 174.789 479.085 176.68 479.085 178.722V183.383C479.085 186.118 479.565 188.444 480.523 190.361C481.5 192.279 482.858 193.744 484.598 194.756C486.338 195.75 488.371 196.247 490.697 196.247C492.207 196.247 493.583 196.034 494.826 195.608C496.069 195.164 497.143 194.507 498.048 193.637C498.954 192.767 499.646 191.693 500.126 190.414L507.663 191.773C507.059 193.992 505.976 195.936 504.414 197.605C502.869 199.257 500.925 200.544 498.581 201.467C496.255 202.373 493.6 202.826 490.618 202.826ZM536.853 202V161.091H544.817V202H536.853ZM540.875 154.779C539.49 154.779 538.3 154.317 537.306 153.394C536.33 152.453 535.841 151.334 535.841 150.038C535.841 148.724 536.33 147.605 537.306 146.682C538.3 145.741 539.49 145.271 540.875 145.271C542.26 145.271 543.441 145.741 544.417 146.682C545.412 147.605 545.909 148.724 545.909 150.038C545.909 151.334 545.412 152.453 544.417 153.394C543.441 154.317 542.26 154.779 540.875 154.779ZM574.626 161.091V167.483H552.281V161.091H574.626ZM558.273 151.29H566.237V189.988C566.237 191.533 566.468 192.696 566.929 193.477C567.391 194.241 567.986 194.765 568.714 195.049C569.459 195.315 570.267 195.448 571.137 195.448C571.777 195.448 572.336 195.404 572.815 195.315C573.295 195.226 573.668 195.155 573.934 195.102L575.372 201.68C574.91 201.858 574.253 202.036 573.401 202.213C572.549 202.408 571.484 202.515 570.205 202.533C568.11 202.568 566.157 202.195 564.346 201.414C562.535 200.633 561.07 199.425 559.951 197.792C558.833 196.158 558.273 194.108 558.273 191.64V151.29ZM603.923 202V147.455H611.887V167.723H612.366C612.828 166.87 613.494 165.885 614.364 164.766C615.234 163.648 616.441 162.671 617.986 161.837C619.53 160.984 621.572 160.558 624.111 160.558C627.414 160.558 630.361 161.393 632.954 163.062C635.546 164.731 637.579 167.137 639.053 170.279C640.544 173.422 641.29 177.204 641.29 181.625C641.29 186.047 640.553 189.837 639.079 192.998C637.606 196.141 635.582 198.564 633.007 200.269C630.432 201.956 627.494 202.799 624.191 202.799C621.706 202.799 619.672 202.382 618.092 201.547C616.53 200.713 615.305 199.736 614.417 198.618C613.529 197.499 612.845 196.505 612.366 195.635H611.7V202H603.923ZM611.727 181.545C611.727 184.422 612.144 186.943 612.979 189.109C613.813 191.276 615.021 192.971 616.601 194.196C618.181 195.404 620.116 196.007 622.407 196.007C624.786 196.007 626.775 195.377 628.373 194.116C629.971 192.838 631.178 191.107 631.995 188.923C632.829 186.739 633.247 184.28 633.247 181.545C633.247 178.847 632.838 176.423 632.022 174.275C631.223 172.126 630.015 170.43 628.399 169.188C626.801 167.945 624.804 167.323 622.407 167.323C620.099 167.323 618.146 167.918 616.547 169.108C614.967 170.297 613.769 171.957 612.952 174.088C612.135 176.219 611.727 178.705 611.727 181.545ZM667.864 202.826C663.833 202.826 660.362 201.964 657.45 200.242C654.556 198.502 652.319 196.061 650.738 192.918C649.176 189.757 648.395 186.055 648.395 181.812C648.395 177.621 649.176 173.928 650.738 170.732C652.319 167.536 654.52 165.042 657.343 163.248C660.184 161.455 663.505 160.558 667.304 160.558C669.613 160.558 671.85 160.94 674.016 161.703C676.182 162.467 678.126 163.665 679.849 165.299C681.571 166.933 682.929 169.054 683.924 171.664C684.918 174.257 685.415 177.408 685.415 181.119V183.942H652.896V177.977H677.612C677.612 175.881 677.185 174.026 676.333 172.41C675.481 170.777 674.282 169.489 672.738 168.548C671.211 167.607 669.417 167.137 667.358 167.137C665.12 167.137 663.167 167.687 661.498 168.788C659.847 169.871 658.569 171.292 657.663 173.049C656.775 174.789 656.331 176.68 656.331 178.722V183.383C656.331 186.118 656.811 188.444 657.77 190.361C658.746 192.279 660.104 193.744 661.844 194.756C663.585 195.75 665.618 196.247 667.944 196.247C669.453 196.247 670.829 196.034 672.072 195.608C673.315 195.164 674.389 194.507 675.294 193.637C676.2 192.767 676.892 191.693 677.372 190.414L684.909 191.773C684.305 193.992 683.222 195.936 681.66 197.605C680.115 199.257 678.171 200.544 675.827 201.467C673.501 202.373 670.847 202.826 667.864 202.826ZM713.347 161.091V167.483H691.002V161.091H713.347ZM696.994 151.29H704.957V189.988C704.957 191.533 705.188 192.696 705.65 193.477C706.112 194.241 706.706 194.765 707.434 195.049C708.18 195.315 708.988 195.448 709.858 195.448C710.497 195.448 711.057 195.404 711.536 195.315C712.015 195.226 712.388 195.155 712.655 195.102L714.093 201.68C713.631 201.858 712.974 202.036 712.122 202.213C711.27 202.408 710.204 202.515 708.926 202.533C706.831 202.568 704.878 202.195 703.066 201.414C701.255 200.633 699.791 199.425 698.672 197.792C697.553 196.158 696.994 194.108 696.994 191.64V151.29ZM741.252 161.091V167.483H718.907V161.091H741.252ZM724.899 151.29H732.863V189.988C732.863 191.533 733.094 192.696 733.555 193.477C734.017 194.241 734.612 194.765 735.34 195.049C736.085 195.315 736.893 195.448 737.763 195.448C738.403 195.448 738.962 195.404 739.441 195.315C739.921 195.226 740.294 195.155 740.56 195.102L741.998 201.68C741.536 201.858 740.879 202.036 740.027 202.213C739.175 202.408 738.11 202.515 736.831 202.533C734.736 202.568 732.783 202.195 730.972 201.414C729.161 200.633 727.696 199.425 726.577 197.792C725.459 196.158 724.899 194.108 724.899 191.64V151.29ZM767.253 202.826C763.223 202.826 759.752 201.964 756.84 200.242C753.945 198.502 751.708 196.061 750.128 192.918C748.565 189.757 747.784 186.055 747.784 181.812C747.784 177.621 748.565 173.928 750.128 170.732C751.708 167.536 753.91 165.042 756.733 163.248C759.574 161.455 762.894 160.558 766.694 160.558C769.002 160.558 771.239 160.94 773.406 161.703C775.572 162.467 777.516 163.665 779.238 165.299C780.961 166.933 782.319 169.054 783.313 171.664C784.308 174.257 784.805 177.408 784.805 181.119V183.942H752.285V177.977H777.001C777.001 175.881 776.575 174.026 775.723 172.41C774.87 170.777 773.672 169.489 772.127 168.548C770.6 167.607 768.807 167.137 766.747 167.137C764.51 167.137 762.557 167.687 760.888 168.788C759.237 169.871 757.958 171.292 757.053 173.049C756.165 174.789 755.721 176.68 755.721 178.722V183.383C755.721 186.118 756.2 188.444 757.159 190.361C758.136 192.279 759.494 193.744 761.234 194.756C762.974 195.75 765.007 196.247 767.333 196.247C768.842 196.247 770.218 196.034 771.461 195.608C772.704 195.164 773.778 194.507 774.684 193.637C775.59 192.767 776.282 191.693 776.761 190.414L784.299 191.773C783.695 193.992 782.612 195.936 781.049 197.605C779.505 199.257 777.56 200.544 775.217 201.467C772.891 202.373 770.236 202.826 767.253 202.826ZM793.64 202V161.091H801.338V167.589H801.764C802.509 165.388 803.823 163.657 805.705 162.396C807.605 161.118 809.754 160.478 812.151 160.478C812.648 160.478 813.234 160.496 813.909 160.532C814.601 160.567 815.143 160.612 815.533 160.665V168.282C815.214 168.193 814.645 168.096 813.829 167.989C813.012 167.865 812.195 167.803 811.378 167.803C809.496 167.803 807.818 168.202 806.345 169.001C804.889 169.782 803.735 170.874 802.882 172.277C802.03 173.662 801.604 175.242 801.604 177.018V202H793.64Z" fill="white" />
            <defs>
                <filter id="filter0_i_438_100" x="71" y="71" width="846" height="221" filterUnits="userSpaceOnUse" color-interpolation-filters="sRGB">
                    <feFlood flood-opacity="0" result="BackgroundImageFix" />
                    <feBlend mode="normal" in="SourceGraphic" in2="BackgroundImageFix" result="shape" />
                    <feColorMatrix in="SourceAlpha" type="matrix" values="0 0 0 0 0 0 0 0 0 0 0 0 0 0 0 0 0 0 127 0" result="hardAlpha" />
                    <feOffset dy="14" />
                    <feGaussianBlur stdDeviation="25" />
                    <feComposite in2="hardAlpha" operator="arithmetic" k2="-1" k3="1" />
                    <feColorMatrix type="matrix" values="0 0 0 0 1 0 0 0 0 1 0 0 0 0 1 0 0 0 0.15 0" />
                    <feBlend mode="normal" in2="shape" result="effect1_innerShadow_438_100" />
                </filter>
            </defs>
        </svg>