      <svg {...props} width="1091" height="424" viewBox="0 0 1091 424" fill="none" xmlns="http://www.w3.org/2000/svg">
            <path d="M579.616 383.378C728.915 351.319 860.38 304.702 952.245 255.201C998.165 230.457 1034.3 204.938 1057.81 180.076C1081.26 155.27 1092.5 130.729 1087.64 108.085C1082.78 85.4414 1062.45 67.6785 1030.88 54.6894C999.237 41.6709 955.815 33.2336 903.785 29.5229C799.696 22.0996 660.683 33.5624 511.384 65.6216C362.084 97.6808 230.62 144.298 138.755 193.799C92.8345 218.543 56.7043 244.062 33.1947 268.924C9.73796 293.73 -1.50427 318.271 3.35805 340.915C8.22036 363.559 28.5467 381.321 60.1192 394.311C91.7628 407.329 135.185 415.766 187.215 419.477C291.304 426.9 430.317 415.438 579.616 383.378Z" fill="url(#paint0_linear_0_1)" stroke="url(#paint1_linear_0_1)" strokeWidth="4" />
            <g filter="url(#filter0_f_0_1)">
                <path fill-rule="evenodd" clip-rule="evenodd" d="M466.217 24.7684V77.8829C466.217 78.1532 466.326 78.4121 466.521 78.6004L494.528 105.784C494.901 106.147 495.401 106.349 495.921 106.349H518.076C518.607 106.349 519.115 106.139 519.49 105.763L546.655 78.5987C546.843 78.4112 546.948 78.1568 546.948 77.8916V24.7684L534.765 12.5858C533.984 11.8047 532.718 11.8047 531.937 12.5858L519.754 24.7684V77.3058C519.754 77.8581 519.307 78.3058 518.754 78.3058H494.411C493.858 78.3058 493.411 77.8581 493.411 77.3058V24.7684L481.228 12.5858C480.447 11.8047 479.181 11.8047 478.4 12.5858L466.217 24.7684ZM352.768 218.948H405.883C406.153 218.948 406.412 218.838 406.6 218.644L433.784 190.637C434.147 190.263 434.349 189.764 434.349 189.244V167.089C434.349 166.558 434.139 166.049 433.763 165.674L406.599 138.51C406.411 138.322 406.157 138.217 405.892 138.217H352.768L340.586 150.399C339.805 151.18 339.805 152.447 340.586 153.228L352.768 165.41H405.306C405.858 165.41 406.306 165.858 406.306 166.41V190.754C406.306 191.307 405.858 191.754 405.306 191.754L352.768 191.754L340.586 203.937C339.805 204.718 339.805 205.984 340.586 206.765L352.768 218.948ZM406.835 135.92L369.278 98.3622L369.278 81.1334C369.278 80.0288 370.173 79.1334 371.278 79.1334H388.506L425.656 116.283C426.046 116.673 426.68 116.673 427.07 116.283L444.284 99.0693C444.674 98.6787 444.674 98.0456 444.284 97.6551L407.134 60.5055V43.2767C407.134 42.1721 408.03 41.2767 409.134 41.2767L426.363 41.2767L463.927 78.8405C464.114 79.028 464.22 79.2824 464.22 79.5476L464.22 117.964C464.22 118.495 464.009 119.003 463.634 119.379L447.968 135.044C447.6 135.412 447.104 135.622 446.584 135.63L407.557 136.213C407.287 136.217 407.026 136.111 406.835 135.92ZM587.982 41.1812L550.424 78.7387C550.233 78.9299 550.128 79.1904 550.132 79.4608L550.714 118.487C550.722 119.007 550.932 119.504 551.3 119.872L566.966 135.538C567.341 135.913 567.849 136.123 568.38 136.123H606.797C607.062 136.123 607.316 136.018 607.504 135.83L645.068 98.2666V81.0378C645.068 79.9333 644.172 79.0379 643.068 79.0379L625.839 79.0378L588.689 116.187C588.299 116.578 587.665 116.578 587.275 116.187L570.061 98.9737C569.671 98.5832 569.671 97.9501 570.061 97.5595L607.211 60.41V43.1812C607.211 42.0766 606.315 41.1812 605.211 41.1812L587.982 41.1812ZM546.948 279.282V332.396L534.765 344.579C533.984 345.36 532.718 345.36 531.937 344.579L519.754 332.396V279.859C519.754 279.306 519.306 278.859 518.754 278.859H494.41C493.858 278.859 493.41 279.306 493.41 279.859V332.396L481.228 344.579C480.447 345.36 479.18 345.36 478.399 344.579L466.217 332.396L466.217 279.273C466.217 279.008 466.322 278.753 466.51 278.566L493.674 251.401C494.049 251.026 494.558 250.815 495.089 250.815H517.244C517.764 250.815 518.263 251.018 518.636 251.38L546.644 278.564C546.838 278.753 546.948 279.011 546.948 279.282ZM660.396 138.217H607.282C607.011 138.217 606.753 138.326 606.564 138.52L579.38 166.528C579.018 166.901 578.815 167.401 578.815 167.921V190.076C578.815 190.606 579.026 191.115 579.401 191.49L606.566 218.655C606.753 218.842 607.008 218.948 607.273 218.948H660.396L672.579 206.765C673.36 205.984 673.36 204.718 672.579 203.937L660.396 191.754H607.859C607.307 191.754 606.859 191.307 606.859 190.754V166.41C606.859 165.858 607.307 165.41 607.859 165.41H660.396L672.579 153.228C673.36 152.447 673.36 151.18 672.579 150.399L660.396 138.217ZM606.329 221.245L643.887 258.803V276.031C643.887 277.136 642.992 278.031 641.887 278.031H624.658L587.509 240.882C587.118 240.491 586.485 240.491 586.095 240.882L568.881 258.095C568.49 258.486 568.49 259.119 568.881 259.51L606.03 296.659V313.888C606.03 314.993 605.135 315.888 604.03 315.888H586.802L549.238 278.324C549.05 278.137 548.945 277.882 548.945 277.617V239.2C548.945 238.67 549.156 238.161 549.531 237.786L565.197 222.12C565.564 221.752 566.061 221.542 566.581 221.535L605.607 220.952C605.878 220.948 606.138 221.054 606.329 221.245ZM427.541 315.791L465.099 278.233C465.29 278.042 465.396 277.782 465.392 277.511L464.809 238.485C464.801 237.965 464.591 237.468 464.224 237.101L448.558 221.435C448.183 221.059 447.674 220.849 447.143 220.849L408.727 220.849C408.462 220.849 408.207 220.954 408.02 221.142L370.456 258.705L370.456 275.934C370.456 277.039 371.351 277.934 372.456 277.934H389.685L426.834 240.785C427.225 240.394 427.858 240.394 428.248 240.785L445.462 257.998C445.853 258.389 445.853 259.022 445.462 259.413L408.313 296.562V313.791C408.313 314.896 409.208 315.791 410.313 315.791H427.541Z" fill="url(#paint2_linear_0_1)" />
            </g>
            <path fill-rule="evenodd" clip-rule="evenodd" d="M466.217 24.7684V77.8829C466.217 78.1532 466.326 78.4121 466.521 78.6004L494.528 105.784C494.901 106.147 495.401 106.349 495.921 106.349H518.076C518.607 106.349 519.115 106.139 519.49 105.763L546.655 78.5987C546.843 78.4112 546.948 78.1568 546.948 77.8916V24.7684L534.765 12.5858C533.984 11.8047 532.718 11.8047 531.937 12.5858L519.754 24.7684V77.3058C519.754 77.8581 519.307 78.3058 518.754 78.3058H494.411C493.858 78.3058 493.411 77.8581 493.411 77.3058V24.7684L481.228 12.5858C480.447 11.8047 479.181 11.8047 478.4 12.5858L466.217 24.7684ZM352.768 218.948H405.883C406.153 218.948 406.412 218.838 406.6 218.644L433.784 190.637C434.147 190.263 434.349 189.764 434.349 189.244V167.089C434.349 166.558 434.139 166.049 433.763 165.674L406.599 138.51C406.411 138.322 406.157 138.217 405.892 138.217H352.768L340.586 150.399C339.805 151.18 339.805 152.447 340.586 153.228L352.768 165.41H405.306C405.858 165.41 406.306 165.858 406.306 166.41V190.754C406.306 191.307 405.858 191.754 405.306 191.754L352.768 191.754L340.586 203.937C339.805 204.718 339.805 205.984 340.586 206.765L352.768 218.948ZM406.835 135.92L369.278 98.3622L369.278 81.1334C369.278 80.0288 370.173 79.1334 371.278 79.1334H388.506L425.656 116.283C426.046 116.673 426.68 116.673 427.07 116.283L444.284 99.0693C444.674 98.6787 444.674 98.0456 444.284 97.6551L407.134 60.5055V43.2767C407.134 42.1721 408.03 41.2767 409.134 41.2767L426.363 41.2767L463.927 78.8405C464.114 79.028 464.22 79.2824 464.22 79.5476L464.22 117.964C464.22 118.495 464.009 119.003 463.634 119.379L447.968 135.044C447.6 135.412 447.104 135.622 446.584 135.63L407.557 136.213C407.287 136.217 407.026 136.111 406.835 135.92ZM587.982 41.1812L550.424 78.7387C550.233 78.9299 550.128 79.1904 550.132 79.4608L550.714 118.487C550.722 119.007 550.932 119.504 551.3 119.872L566.966 135.538C567.341 135.913 567.849 136.123 568.38 136.123H606.797C607.062 136.123 607.316 136.018 607.504 135.83L645.068 98.2666V81.0378C645.068 79.9333 644.172 79.0379 643.068 79.0379L625.839 79.0378L588.689 116.187C588.299 116.578 587.665 116.578 587.275 116.187L570.061 98.9737C569.671 98.5832 569.671 97.9501 570.061 97.5595L607.211 60.41V43.1812C607.211 42.0766 606.315 41.1812 605.211 41.1812L587.982 41.1812ZM546.948 279.282V332.396L534.765 344.579C533.984 345.36 532.718 345.36 531.937 344.579L519.754 332.396V279.859C519.754 279.306 519.306 278.859 518.754 278.859H494.41C493.858 278.859 493.41 279.306 493.41 279.859V332.396L481.228 344.579C480.447 345.36 479.18 345.36 478.399 344.579L466.217 332.396L466.217 279.273C466.217 279.008 466.322 278.753 466.51 278.566L493.674 251.401C494.049 251.026 494.558 250.815 495.089 250.815H517.244C517.764 250.815 518.263 251.018 518.636 251.38L546.644 278.564C546.838 278.753 546.948 279.011 546.948 279.282ZM660.396 138.217H607.282C607.011 138.217 606.753 138.326 606.564 138.52L579.38 166.528C579.018 166.901 578.815 167.401 578.815 167.921V190.076C578.815 190.606 579.026 191.115 579.401 191.49L606.566 218.655C606.753 218.842 607.008 218.948 607.273 218.948H660.396L672.579 206.765C673.36 205.984 673.36 204.718 672.579 203.937L660.396 191.754H607.859C607.307 191.754 606.859 191.307 606.859 190.754V166.41C606.859 165.858 607.307 165.41 607.859 165.41H660.396L672.579 153.228C673.36 152.447 673.36 151.18 672.579 150.399L660.396 138.217ZM606.329 221.245L643.887 258.803V276.031C643.887 277.136 642.992 278.031 641.887 278.031H624.658L587.509 240.882C587.118 240.491 586.485 240.491 586.095 240.882L568.881 258.095C568.49 258.486 568.49 259.119 568.881 259.51L606.03 296.659V313.888C606.03 314.993 605.135 315.888 604.03 315.888H586.802L549.238 278.324C549.05 278.137 548.945 277.882 548.945 277.617V239.2C548.945 238.67 549.156 238.161 549.531 237.786L565.197 222.12C565.564 221.752 566.061 221.542 566.581 221.535L605.607 220.952C605.878 220.948 606.138 221.054 606.329 221.245ZM427.541 315.791L465.099 278.233C465.29 278.042 465.396 277.782 465.392 277.511L464.809 238.485C464.801 237.965 464.591 237.468 464.224 237.101L448.558 221.435C448.183 221.059 447.674 220.849 447.143 220.849L408.727 220.849C408.462 220.849 408.207 220.954 408.02 221.142L370.456 258.705L370.456 275.934C370.456 277.039 371.351 277.934 372.456 277.934H389.685L426.834 240.785C427.225 240.394 427.858 240.394 428.248 240.785L445.462 257.998C445.853 258.389 445.853 259.022 445.462 259.413L408.313 296.562V313.791C408.313 314.896 409.208 315.791 410.313 315.791H427.541Z" fill="#7C3AED" />
            <g filter="url(#filter1_f_0_1)">
                <ellipse cx="1046" cy="192" rx="10" ry="7" fill="#7C3AED" />
            </g>
            <g filter="url(#filter2_f_0_1)">
                <ellipse cx="1046" cy="192" rx="6" ry="4" fill="#7C3AED" />
            </g>
            <g filter="url(#filter3_f_0_1)">
                <ellipse cx="601" cy="379" rx="10" ry="7" transform="rotate(30 601 379)" fill="#7C3AED" />
            </g>
            <g filter="url(#filter4_f_0_1)">
                <ellipse cx="601" cy="379" rx="6" ry="4" transform="rotate(30 601 379)" fill="#7C3AED" />
            </g>
            <g filter="url(#filter5_f_0_1)">
                <ellipse cx="25.3497" cy="374.471" rx="10" ry="7" transform="rotate(75 25.3497 374.471)" fill="#7C3AED" />
            </g>
            <g filter="url(#filter6_f_0_1)">
                <ellipse cx="25.3499" cy="374.471" rx="6" ry="4" transform="rotate(75 25.3499 374.471)" fill="#7C3AED" />
            </g>
            <defs>
                <filter id="filter0_f_0_1" x="328" y="0" width="357.165" height="357.165" filterUnits="userSpaceOnUse" color-interpolation-filters="sRGB">
                    <feFlood flood-opacity="0" result="BackgroundImageFix" />
                    <feBlend mode="normal" in="SourceGraphic" in2="BackgroundImageFix" result="shape" />
                    <feGaussianBlur stdDeviation="6" result="effect1_foregroundBlur_0_1" />
                </filter>
                <filter id="filter1_f_0_1" x="1026" y="175" width="40" height="34" filterUnits="userSpaceOnUse" color-interpolation-filters="sRGB">
                    <feFlood flood-opacity="0" result="BackgroundImageFix" />
                    <feBlend mode="normal" in="SourceGraphic" in2="BackgroundImageFix" result="shape" />
                    <feGaussianBlur stdDeviation="5" result="effect1_foregroundBlur_0_1" />
                </filter>
                <filter id="filter2_f_0_1" x="1036" y="184" width="20" height="16" filterUnits="userSpaceOnUse" color-interpolation-filters="sRGB">
                    <feFlood flood-opacity="0" result="BackgroundImageFix" />
                    <feBlend mode="normal" in="SourceGraphic" in2="BackgroundImageFix" result="shape" />
                    <feGaussianBlur stdDeviation="2" result="effect1_foregroundBlur_0_1" />
                </filter>
                <filter id="filter3_f_0_1" x="581.657" y="361.142" width="38.6865" height="35.7167" filterUnits="userSpaceOnUse" color-interpolation-filters="sRGB">
                    <feFlood flood-opacity="0" result="BackgroundImageFix" />
                    <feBlend mode="normal" in="SourceGraphic" in2="BackgroundImageFix" result="shape" />
                    <feGaussianBlur stdDeviation="5" result="effect1_foregroundBlur_0_1" />
                </filter>
                <filter id="filter4_f_0_1" x="591.431" y="370.417" width="19.1387" height="17.1653" filterUnits="userSpaceOnUse" color-interpolation-filters="sRGB">
                    <feFlood flood-opacity="0" result="BackgroundImageFix" />
                    <feBlend mode="normal" in="SourceGraphic" in2="BackgroundImageFix" result="shape" />
                    <feGaussianBlur stdDeviation="2" result="effect1_foregroundBlur_0_1" />
                </filter>
                <filter id="filter5_f_0_1" x="8.10791" y="354.642" width="34.4834" height="39.6589" filterUnits="userSpaceOnUse" color-interpolation-filters="sRGB">
                    <feFlood flood-opacity="0" result="BackgroundImageFix" />
                    <feBlend mode="normal" in="SourceGraphic" in2="BackgroundImageFix" result="shape" />
                    <feGaussianBlur stdDeviation="5" result="effect1_foregroundBlur_0_1" />
                </filter>
                <filter id="filter6_f_0_1" x="17.1846" y="364.583" width="16.3306" height="19.7766" filterUnits="userSpaceOnUse" color-interpolation-filters="sRGB">
                    <feFlood flood-opacity="0" result="BackgroundImageFix" />
                    <feBlend mode="normal" in="SourceGraphic" in2="BackgroundImageFix" result="shape" />
                    <feGaussianBlur stdDeviation="2" result="effect1_foregroundBlur_0_1" />
                </filter>
                <linearGradient id="paint0_linear_0_1" x1="676" y1="486.5" x2="545" y2="113.5" gradientUnits="userSpaceOnUse">
                    <stop stop-color="#7C3AED" />
                    <stop offset="1" stop-color="#09090B" stop-opacity="0" />
                </linearGradient>
                <linearGradient id="paint1_linear_0_1" x1="656" y1="356" x2="499" y2="-179" gradientUnits="userSpaceOnUse">
                    <stop stop-color="#7C3AED" />
                    <stop offset="0.494737" stop-color="#09090B" stop-opacity="0" />
                </linearGradient>
                <linearGradient id="paint2_linear_0_1" x1="340" y1="12" x2="673" y2="345" gradientUnits="userSpaceOnUse">
                    <stop stop-color="#7C3AED" />
                    <stop offset="1" stop-color="#A855F7" />
                </linearGradient>
            </defs>
        </svg>