      <svg {...props} width="990" height="701" viewBox="0 0 990 701" fill="none" xmlns="http://www.w3.org/2000/svg">
            <rect x="1.5" y="1.5" width="987" height="698" rx="48.5" fill="url(#paint0_linear_437_99)" fill-opacity="0.2" stroke="url(#paint1_linear_437_99)" strokeWidth="3" />
            <rect x="60" y="54" width="226.703" height="64" rx="16" fill="white" fill-opacity="0.1" />
            <rect x="61" y="55" width="224.703" height="62" rx="15" stroke="white" stroke-opacity="0.05" strokeWidth="2" />
            <path fill-rule="evenodd" clip-rule="evenodd" d="M103.348 68.8372V74.3879C103.348 74.6583 103.457 74.9172 103.651 75.1055L105.99 77.3752C106.363 77.7374 106.862 77.94 107.382 77.94H108.398C108.929 77.94 109.437 77.7293 109.812 77.3543L112.063 75.1038C112.25 74.9163 112.356 74.6619 112.356 74.3967V68.8372L112.253 68.7342C111.472 67.9532 110.205 67.9532 109.424 68.7342L109.321 68.8372V73.8109C109.321 74.3632 108.874 74.8109 108.321 74.8109H107.382C106.83 74.8109 106.382 74.3632 106.382 73.8109V68.8372L106.279 68.7342C105.498 67.9532 104.232 67.9532 103.45 68.7342L103.348 68.8372ZM90.6887 90.504H96.2395C96.5099 90.504 96.7688 90.3945 96.9571 90.2005L99.2268 87.862C99.589 87.4888 99.7916 86.9892 99.7916 86.4691V85.4535C99.7916 84.9231 99.5809 84.4144 99.2058 84.0393L96.9554 81.7889C96.7678 81.6013 96.5135 81.496 96.2483 81.496H90.6887L90.5858 81.5989C89.8047 82.38 89.8047 83.6463 90.5858 84.4273L90.6887 84.5303H95.6625C96.2148 84.5303 96.6625 84.978 96.6625 85.5303V86.4697C96.6625 87.022 96.2148 87.4697 95.6625 87.4697H90.6887L90.5858 87.5727C89.8047 88.3537 89.8047 89.62 90.5858 90.4011L90.6887 90.504ZM96.4556 80.9732L92.5306 77.0482V76.9027C92.5306 75.7981 93.4261 74.9027 94.5306 74.9027H94.6762L98.1932 78.4197C98.5837 78.8102 99.2169 78.8102 99.6074 78.4197L100.272 77.7553C100.662 77.3648 100.662 76.7317 100.272 76.3411L96.7547 72.8241V72.6786C96.7547 71.574 97.6501 70.6786 98.7547 70.6786L98.9003 70.6786L102.831 74.6098C103.019 74.7973 103.124 75.0517 103.124 75.3169V78.4995C103.124 79.0299 102.914 79.5386 102.539 79.9137L101.82 80.6318C101.453 80.9996 100.956 81.2096 100.436 81.2174L97.1777 81.266C96.9073 81.2701 96.6468 81.1644 96.4556 80.9732ZM116.934 70.6678L113.009 74.5928C112.818 74.784 112.713 75.0445 112.717 75.3149L112.765 78.5733C112.773 79.0934 112.983 79.5899 113.351 79.9577L114.069 80.6758C114.444 81.0509 114.953 81.2616 115.483 81.2616H118.666C118.931 81.2616 119.185 81.1562 119.373 80.9687L123.304 77.0375V76.8919C123.304 75.7874 122.409 74.8919 121.304 74.8919L121.158 74.8919L117.641 78.4089C117.251 78.7994 116.618 78.7994 116.227 78.4089L115.563 77.7446C115.172 77.3541 115.172 76.7209 115.563 76.3304L119.08 72.8134V72.6678C119.08 71.5633 118.185 70.6678 117.08 70.6678H116.934ZM112.355 97.6113V103.162L112.252 103.265C111.471 104.046 110.205 104.046 109.424 103.265L109.321 103.162L109.321 98.1883C109.321 97.636 108.873 97.1883 108.321 97.1883H107.381C106.829 97.1883 106.381 97.636 106.381 98.1883L106.381 103.162L106.278 103.265C105.497 104.046 104.231 104.046 103.45 103.265L103.347 103.162L103.347 97.6025C103.347 97.3373 103.452 97.0829 103.64 96.8954L105.89 94.645C106.266 94.2699 106.774 94.0592 107.305 94.0592H108.32C108.84 94.0592 109.34 94.2618 109.713 94.624L112.052 96.8937C112.246 97.082 112.355 97.3409 112.355 97.6113ZM125.014 81.4952H119.463C119.193 81.4952 118.934 81.6047 118.746 81.7987L116.476 84.1372C116.114 84.5104 115.911 85.01 115.911 85.5301V86.5457C115.911 87.0761 116.122 87.5848 116.497 87.9599L118.747 90.2104C118.935 90.3979 119.189 90.5032 119.454 90.5032H125.014L125.117 90.4003C125.898 89.6193 125.898 88.3529 125.117 87.5719L125.014 87.469H120.04C119.488 87.469 119.04 87.0212 119.04 86.469V85.5295C119.04 84.9772 119.488 84.5295 120.04 84.5295H125.014L125.117 84.4265C125.898 83.6455 125.898 82.3792 125.117 81.5981L125.014 81.4952ZM119.247 91.0252L123.172 94.9502V95.0958C123.172 96.2003 122.277 97.0958 121.172 97.0958H121.027L117.51 93.5788C117.119 93.1882 116.486 93.1882 116.095 93.5788L115.431 94.2431C115.041 94.6336 115.041 95.2668 115.431 95.6573L118.948 99.1743V99.3198C118.948 100.424 118.053 101.32 116.948 101.32H116.802L112.871 97.3886C112.684 97.2011 112.578 96.9468 112.578 96.6815V93.4989C112.578 92.9685 112.789 92.4598 113.164 92.0847L113.882 91.3666C114.25 90.9988 114.747 90.7888 115.267 90.781L118.525 90.7324C118.795 90.7284 119.056 90.834 119.247 91.0252ZM99.032 101.309L102.957 97.3839C103.148 97.1927 103.254 96.9323 103.25 96.6619L103.201 93.4035C103.193 92.8834 102.983 92.3869 102.616 92.0191L101.897 91.301C101.522 90.9259 101.014 90.7152 100.483 90.7152H97.3007C97.0355 90.7152 96.7811 90.8205 96.5936 91.0081L92.6624 94.9393L92.6624 95.0848C92.6624 96.1894 93.5578 97.0848 94.6624 97.0848H94.8079L98.3249 93.5679C98.7154 93.1773 99.3486 93.1773 99.7391 93.5679L100.403 94.2322C100.794 94.6227 100.794 95.2559 100.403 95.6464L96.8865 99.1634L96.8865 99.3089C96.8865 100.414 97.7819 101.309 98.8865 101.309H99.032Z" fill="white" />
            <path d="M165.942 81H162.771C162.584 80.0881 162.256 79.2869 161.787 78.5966C161.327 77.9062 160.764 77.3267 160.099 76.858C159.443 76.3807 158.714 76.0227 157.913 75.7841C157.112 75.5455 156.277 75.4261 155.408 75.4261C153.822 75.4261 152.386 75.8267 151.099 76.6278C149.821 77.429 148.803 78.6094 148.044 80.169C147.294 81.7287 146.919 83.642 146.919 85.9091C146.919 88.1761 147.294 90.0895 148.044 91.6491C148.803 93.2088 149.821 94.3892 151.099 95.1903C152.386 95.9915 153.822 96.392 155.408 96.392C156.277 96.392 157.112 96.2727 157.913 96.0341C158.714 95.7955 159.443 95.4418 160.099 94.973C160.764 94.4957 161.327 93.9119 161.787 93.2216C162.256 92.5227 162.584 91.7216 162.771 90.8182H165.942C165.703 92.1562 165.268 93.3537 164.638 94.4105C164.007 95.4673 163.223 96.3665 162.286 97.108C161.348 97.8409 160.295 98.3991 159.128 98.7827C157.969 99.1662 156.729 99.358 155.408 99.358C153.175 99.358 151.189 98.8125 149.45 97.7216C147.712 96.6307 146.344 95.0795 145.347 93.0682C144.349 91.0568 143.851 88.6705 143.851 85.9091C143.851 83.1477 144.349 80.7614 145.347 78.75C146.344 76.7386 147.712 75.1875 149.45 74.0966C151.189 73.0057 153.175 72.4602 155.408 72.4602C156.729 72.4602 157.969 72.652 159.128 73.0355C160.295 73.419 161.348 73.9815 162.286 74.723C163.223 75.456 164.007 76.3509 164.638 77.4077C165.268 78.456 165.703 79.6534 165.942 81ZM170.656 99V79.3636H173.571V82.3295H173.775C174.133 81.358 174.781 80.5696 175.718 79.9645C176.656 79.3594 177.713 79.0568 178.889 79.0568C179.11 79.0568 179.387 79.0611 179.72 79.0696C180.052 79.0781 180.304 79.0909 180.474 79.108V82.1761C180.372 82.1506 180.137 82.1122 179.771 82.0611C179.413 82.0014 179.034 81.9716 178.633 81.9716C177.679 81.9716 176.826 82.1719 176.076 82.5724C175.335 82.9645 174.747 83.5099 174.312 84.2088C173.886 84.8991 173.673 85.6875 173.673 86.5739V99H170.656ZM191.686 99.4091C189.794 99.4091 188.162 98.9915 186.789 98.1562C185.426 97.3125 184.373 96.1364 183.632 94.6278C182.899 93.1108 182.532 91.3466 182.532 89.3352C182.532 87.3239 182.899 85.5511 183.632 84.017C184.373 82.4744 185.404 81.2727 186.725 80.4119C188.055 79.5426 189.606 79.108 191.379 79.108C192.402 79.108 193.412 79.2784 194.409 79.6193C195.406 79.9602 196.314 80.5142 197.132 81.2812C197.95 82.0398 198.602 83.0455 199.088 84.2983C199.574 85.5511 199.816 87.0937 199.816 88.9261V90.2045H184.68V87.5966H196.748C196.748 86.4886 196.527 85.5 196.083 84.6307C195.649 83.7614 195.027 83.0753 194.217 82.5724C193.416 82.0696 192.47 81.8182 191.379 81.8182C190.177 81.8182 189.137 82.1165 188.26 82.7131C187.39 83.3011 186.721 84.0682 186.252 85.0142C185.784 85.9602 185.549 86.9744 185.549 88.0568V89.7955C185.549 91.2784 185.805 92.5355 186.316 93.5668C186.836 94.5895 187.556 95.3693 188.477 95.9062C189.397 96.4347 190.467 96.6989 191.686 96.6989C192.478 96.6989 193.194 96.5881 193.833 96.3665C194.481 96.1364 195.039 95.7955 195.508 95.3438C195.977 94.8835 196.339 94.3125 196.595 93.6307L199.51 94.4489C199.203 95.4375 198.687 96.3068 197.963 97.0568C197.238 97.7983 196.343 98.3778 195.278 98.7955C194.213 99.2045 193.015 99.4091 191.686 99.4091ZM210.184 99.4602C208.94 99.4602 207.811 99.2259 206.797 98.7571C205.782 98.2798 204.977 97.5938 204.38 96.6989C203.784 95.7955 203.485 94.7045 203.485 93.4261C203.485 92.3011 203.707 91.3892 204.15 90.6903C204.593 89.983 205.186 89.429 205.927 89.0284C206.669 88.6278 207.487 88.3295 208.382 88.1335C209.285 87.929 210.193 87.767 211.105 87.6477C212.298 87.4943 213.265 87.3793 214.007 87.3026C214.757 87.2173 215.302 87.0767 215.643 86.8807C215.993 86.6847 216.167 86.3437 216.167 85.858V85.7557C216.167 84.4943 215.822 83.5142 215.132 82.8153C214.45 82.1165 213.414 81.767 212.025 81.767C210.585 81.767 209.456 82.0824 208.637 82.7131C207.819 83.3437 207.244 84.017 206.912 84.733L204.048 83.7102C204.559 82.517 205.241 81.5881 206.093 80.9233C206.954 80.25 207.892 79.7812 208.906 79.517C209.929 79.2443 210.934 79.108 211.923 79.108C212.554 79.108 213.278 79.1847 214.096 79.3381C214.923 79.483 215.72 79.7855 216.487 80.2457C217.262 80.706 217.906 81.4006 218.417 82.3295C218.929 83.2585 219.184 84.5028 219.184 86.0625V99H216.167V96.3409H216.014C215.809 96.767 215.468 97.223 214.991 97.7088C214.514 98.1946 213.879 98.608 213.086 98.9489C212.294 99.2898 211.326 99.4602 210.184 99.4602ZM210.645 96.75C211.838 96.75 212.843 96.5156 213.662 96.0469C214.488 95.5781 215.11 94.973 215.528 94.2315C215.954 93.4901 216.167 92.7102 216.167 91.892V89.1307C216.039 89.2841 215.758 89.4247 215.324 89.5526C214.897 89.6719 214.403 89.7784 213.841 89.8722C213.287 89.9574 212.745 90.0341 212.217 90.1023C211.697 90.1619 211.275 90.2131 210.951 90.2557C210.167 90.358 209.434 90.5241 208.752 90.7543C208.079 90.9759 207.534 91.3125 207.116 91.7642C206.707 92.2074 206.502 92.8125 206.502 93.5795C206.502 94.6278 206.89 95.4205 207.666 95.9574C208.45 96.4858 209.443 96.75 210.645 96.75ZM233.231 79.3636V81.9205H223.055V79.3636H233.231ZM226.021 74.6591H229.038V93.375C229.038 94.2273 229.161 94.8665 229.408 95.2926C229.664 95.7102 229.988 95.9915 230.38 96.1364C230.781 96.2727 231.202 96.3409 231.646 96.3409C231.978 96.3409 232.251 96.3239 232.464 96.2898C232.677 96.2472 232.847 96.2131 232.975 96.1875L233.589 98.8977C233.384 98.9744 233.099 99.0511 232.732 99.1278C232.366 99.2131 231.901 99.2557 231.339 99.2557C230.487 99.2557 229.651 99.0724 228.833 98.706C228.023 98.3395 227.35 97.7812 226.813 97.0312C226.285 96.2812 226.021 95.3352 226.021 94.1932V74.6591ZM245.791 99.4091C243.899 99.4091 242.267 98.9915 240.895 98.1562C239.531 97.3125 238.479 96.1364 237.737 94.6278C237.004 93.1108 236.638 91.3466 236.638 89.3352C236.638 87.3239 237.004 85.5511 237.737 84.017C238.479 82.4744 239.51 81.2727 240.831 80.4119C242.161 79.5426 243.712 79.108 245.484 79.108C246.507 79.108 247.517 79.2784 248.514 79.6193C249.511 79.9602 250.419 80.5142 251.237 81.2812C252.055 82.0398 252.707 83.0455 253.193 84.2983C253.679 85.5511 253.922 87.0937 253.922 88.9261V90.2045H238.786V87.5966H250.854C250.854 86.4886 250.632 85.5 250.189 84.6307C249.754 83.7614 249.132 83.0753 248.322 82.5724C247.521 82.0696 246.575 81.8182 245.484 81.8182C244.283 81.8182 243.243 82.1165 242.365 82.7131C241.496 83.3011 240.827 84.0682 240.358 85.0142C239.889 85.9602 239.655 86.9744 239.655 88.0568V89.7955C239.655 91.2784 239.911 92.5355 240.422 93.5668C240.942 94.5895 241.662 95.3693 242.582 95.9062C243.503 96.4347 244.572 96.6989 245.791 96.6989C246.584 96.6989 247.3 96.5881 247.939 96.3665C248.587 96.1364 249.145 95.7955 249.614 95.3438C250.082 94.8835 250.445 94.3125 250.7 93.6307L253.615 94.4489C253.308 95.4375 252.793 96.3068 252.068 97.0568C251.344 97.7983 250.449 98.3778 249.384 98.7955C248.318 99.2045 247.121 99.4091 245.791 99.4091Z" fill="white" />
            <rect x="60" y="195" width="450" height="72" rx="16" fill="white" fill-opacity="0.1" />
            <rect x="61" y="196" width="448" height="70" rx="15" stroke="white" stroke-opacity="0.05" strokeWidth="2" />
            <path d="M98.5398 244.46C97.2955 244.46 96.1662 244.226 95.152 243.757C94.1378 243.28 93.3324 242.594 92.7358 241.699C92.1392 240.795 91.8409 239.705 91.8409 238.426C91.8409 237.301 92.0625 236.389 92.5057 235.69C92.9489 234.983 93.5412 234.429 94.2827 234.028C95.0241 233.628 95.8423 233.33 96.7372 233.134C97.6406 232.929 98.5483 232.767 99.4602 232.648C100.653 232.494 101.621 232.379 102.362 232.303C103.112 232.217 103.658 232.077 103.999 231.881C104.348 231.685 104.523 231.344 104.523 230.858V230.756C104.523 229.494 104.178 228.514 103.487 227.815C102.805 227.116 101.77 226.767 100.381 226.767C98.9403 226.767 97.8111 227.082 96.9929 227.713C96.1747 228.344 95.5994 229.017 95.267 229.733L92.4034 228.71C92.9148 227.517 93.5966 226.588 94.4489 225.923C95.3097 225.25 96.2472 224.781 97.2614 224.517C98.2841 224.244 99.2898 224.108 100.278 224.108C100.909 224.108 101.634 224.185 102.452 224.338C103.278 224.483 104.075 224.786 104.842 225.246C105.618 225.706 106.261 226.401 106.773 227.33C107.284 228.259 107.54 229.503 107.54 231.062V244H104.523V241.341H104.369C104.165 241.767 103.824 242.223 103.347 242.709C102.869 243.195 102.234 243.608 101.442 243.949C100.649 244.29 99.6818 244.46 98.5398 244.46ZM99 241.75C100.193 241.75 101.199 241.516 102.017 241.047C102.844 240.578 103.466 239.973 103.884 239.232C104.31 238.49 104.523 237.71 104.523 236.892V234.131C104.395 234.284 104.114 234.425 103.679 234.553C103.253 234.672 102.759 234.778 102.196 234.872C101.642 234.957 101.101 235.034 100.572 235.102C100.053 235.162 99.6307 235.213 99.3068 235.256C98.5227 235.358 97.7898 235.524 97.108 235.754C96.4347 235.976 95.8892 236.312 95.4716 236.764C95.0625 237.207 94.858 237.812 94.858 238.58C94.858 239.628 95.2457 240.42 96.0213 240.957C96.8054 241.486 97.7983 241.75 99 241.75ZM120.461 244.409C118.825 244.409 117.38 243.996 116.127 243.169C114.875 242.334 113.895 241.158 113.187 239.641C112.48 238.115 112.126 236.312 112.126 234.233C112.126 232.17 112.48 230.381 113.187 228.864C113.895 227.347 114.879 226.175 116.14 225.348C117.402 224.521 118.859 224.108 120.512 224.108C121.791 224.108 122.801 224.321 123.542 224.747C124.292 225.165 124.863 225.642 125.255 226.179C125.656 226.707 125.967 227.142 126.189 227.483H126.444V217.818H129.461V244H126.547V240.983H126.189C125.967 241.341 125.652 241.793 125.243 242.338C124.833 242.875 124.25 243.357 123.491 243.783C122.733 244.2 121.723 244.409 120.461 244.409ZM120.87 241.699C122.081 241.699 123.103 241.384 123.939 240.753C124.774 240.114 125.409 239.232 125.843 238.107C126.278 236.973 126.495 235.665 126.495 234.182C126.495 232.716 126.282 231.433 125.856 230.334C125.43 229.226 124.799 228.365 123.964 227.751C123.129 227.129 122.098 226.818 120.87 226.818C119.592 226.818 118.527 227.146 117.674 227.803C116.831 228.45 116.196 229.332 115.77 230.449C115.352 231.557 115.143 232.801 115.143 234.182C115.143 235.58 115.356 236.849 115.782 237.991C116.217 239.125 116.856 240.028 117.7 240.702C118.552 241.366 119.609 241.699 120.87 241.699ZM142.821 244.409C141.184 244.409 139.74 243.996 138.487 243.169C137.234 242.334 136.254 241.158 135.547 239.641C134.839 238.115 134.485 236.312 134.485 234.233C134.485 232.17 134.839 230.381 135.547 228.864C136.254 227.347 137.238 226.175 138.5 225.348C139.761 224.521 141.218 224.108 142.872 224.108C144.15 224.108 145.16 224.321 145.902 224.747C146.652 225.165 147.223 225.642 147.615 226.179C148.015 226.707 148.326 227.142 148.548 227.483H148.804V217.818H151.821V244H148.906V240.983H148.548C148.326 241.341 148.011 241.793 147.602 242.338C147.193 242.875 146.609 243.357 145.85 243.783C145.092 244.2 144.082 244.409 142.821 244.409ZM143.23 241.699C144.44 241.699 145.463 241.384 146.298 240.753C147.133 240.114 147.768 239.232 148.203 238.107C148.637 236.973 148.855 235.665 148.855 234.182C148.855 232.716 148.642 231.433 148.216 230.334C147.789 229.226 147.159 228.365 146.324 227.751C145.488 227.129 144.457 226.818 143.23 226.818C141.951 226.818 140.886 227.146 140.034 227.803C139.19 228.45 138.555 229.332 138.129 230.449C137.711 231.557 137.502 232.801 137.502 234.182C137.502 235.58 137.716 236.849 138.142 237.991C138.576 239.125 139.216 240.028 140.059 240.702C140.912 241.366 141.968 241.699 143.23 241.699ZM173.669 244.46C172.424 244.46 171.295 244.226 170.281 243.757C169.267 243.28 168.461 242.594 167.865 241.699C167.268 240.795 166.97 239.705 166.97 238.426C166.97 237.301 167.191 236.389 167.635 235.69C168.078 234.983 168.67 234.429 169.412 234.028C170.153 233.628 170.971 233.33 171.866 233.134C172.77 232.929 173.677 232.767 174.589 232.648C175.782 232.494 176.75 232.379 177.491 232.303C178.241 232.217 178.787 232.077 179.127 231.881C179.477 231.685 179.652 231.344 179.652 230.858V230.756C179.652 229.494 179.306 228.514 178.616 227.815C177.934 227.116 176.899 226.767 175.51 226.767C174.069 226.767 172.94 227.082 172.122 227.713C171.304 228.344 170.728 229.017 170.396 229.733L167.532 228.71C168.044 227.517 168.725 226.588 169.578 225.923C170.439 225.25 171.376 224.781 172.39 224.517C173.413 224.244 174.419 224.108 175.407 224.108C176.038 224.108 176.762 224.185 177.581 224.338C178.407 224.483 179.204 224.786 179.971 225.246C180.747 225.706 181.39 226.401 181.902 227.33C182.413 228.259 182.669 229.503 182.669 231.062V244H179.652V241.341H179.498C179.294 241.767 178.953 242.223 178.475 242.709C177.998 243.195 177.363 243.608 176.571 243.949C175.778 244.29 174.811 244.46 173.669 244.46ZM174.129 241.75C175.322 241.75 176.328 241.516 177.146 241.047C177.973 240.578 178.595 239.973 179.012 239.232C179.439 238.49 179.652 237.71 179.652 236.892V234.131C179.524 234.284 179.243 234.425 178.808 234.553C178.382 234.672 177.887 234.778 177.325 234.872C176.771 234.957 176.23 235.034 175.701 235.102C175.181 235.162 174.76 235.213 174.436 235.256C173.652 235.358 172.919 235.524 172.237 235.754C171.564 235.976 171.018 236.312 170.6 236.764C170.191 237.207 169.987 237.812 169.987 238.58C169.987 239.628 170.375 240.42 171.15 240.957C171.934 241.486 172.927 241.75 174.129 241.75ZM201.317 232.188V244H198.3V224.364H201.215V227.432H201.471C201.931 226.435 202.63 225.634 203.567 225.028C204.505 224.415 205.715 224.108 207.198 224.108C208.528 224.108 209.691 224.381 210.688 224.926C211.685 225.463 212.461 226.281 213.015 227.381C213.569 228.472 213.846 229.852 213.846 231.523V244H210.829V231.727C210.829 230.185 210.428 228.983 209.627 228.122C208.826 227.253 207.727 226.818 206.329 226.818C205.366 226.818 204.505 227.027 203.746 227.445C202.996 227.862 202.404 228.472 201.969 229.273C201.535 230.074 201.317 231.045 201.317 232.188ZM227.592 244.409C225.7 244.409 224.068 243.991 222.696 243.156C221.332 242.312 220.279 241.136 219.538 239.628C218.805 238.111 218.439 236.347 218.439 234.335C218.439 232.324 218.805 230.551 219.538 229.017C220.279 227.474 221.311 226.273 222.632 225.412C223.961 224.543 225.512 224.108 227.285 224.108C228.308 224.108 229.318 224.278 230.315 224.619C231.312 224.96 232.22 225.514 233.038 226.281C233.856 227.04 234.508 228.045 234.994 229.298C235.48 230.551 235.723 232.094 235.723 233.926V235.205H220.586V232.597H232.654C232.654 231.489 232.433 230.5 231.99 229.631C231.555 228.761 230.933 228.075 230.123 227.572C229.322 227.07 228.376 226.818 227.285 226.818C226.083 226.818 225.044 227.116 224.166 227.713C223.297 228.301 222.627 229.068 222.159 230.014C221.69 230.96 221.456 231.974 221.456 233.057V234.795C221.456 236.278 221.711 237.536 222.223 238.567C222.743 239.589 223.463 240.369 224.383 240.906C225.304 241.435 226.373 241.699 227.592 241.699C228.385 241.699 229.1 241.588 229.74 241.366C230.387 241.136 230.946 240.795 231.414 240.344C231.883 239.884 232.245 239.312 232.501 238.631L235.416 239.449C235.109 240.438 234.593 241.307 233.869 242.057C233.145 242.798 232.25 243.378 231.184 243.795C230.119 244.205 228.922 244.409 227.592 244.409ZM244.761 244L238.778 224.364H241.949L246.193 239.398H246.397L250.591 224.364H253.812L257.954 239.347H258.159L262.403 224.364H265.574L259.591 244H256.625L252.329 228.915H252.022L247.727 244H244.761ZM280.096 244V217.818H283.113V227.483H283.369C283.591 227.142 283.897 226.707 284.289 226.179C284.69 225.642 285.261 225.165 286.002 224.747C286.752 224.321 287.767 224.108 289.045 224.108C290.699 224.108 292.156 224.521 293.417 225.348C294.679 226.175 295.663 227.347 296.37 228.864C297.078 230.381 297.431 232.17 297.431 234.233C297.431 236.312 297.078 238.115 296.37 239.641C295.663 241.158 294.683 242.334 293.43 243.169C292.177 243.996 290.733 244.409 289.096 244.409C287.835 244.409 286.825 244.2 286.066 243.783C285.308 243.357 284.724 242.875 284.315 242.338C283.906 241.793 283.591 241.341 283.369 240.983H283.011V244H280.096ZM283.062 234.182C283.062 235.665 283.279 236.973 283.714 238.107C284.149 239.232 284.784 240.114 285.619 240.753C286.454 241.384 287.477 241.699 288.687 241.699C289.949 241.699 291.001 241.366 291.845 240.702C292.697 240.028 293.336 239.125 293.762 237.991C294.197 236.849 294.414 235.58 294.414 234.182C294.414 232.801 294.201 231.557 293.775 230.449C293.358 229.332 292.723 228.45 291.87 227.803C291.027 227.146 289.966 226.818 288.687 226.818C287.46 226.818 286.429 227.129 285.593 227.751C284.758 228.365 284.127 229.226 283.701 230.334C283.275 231.433 283.062 232.716 283.062 234.182ZM307.825 244.46C306.581 244.46 305.451 244.226 304.437 243.757C303.423 243.28 302.618 242.594 302.021 241.699C301.424 240.795 301.126 239.705 301.126 238.426C301.126 237.301 301.348 236.389 301.791 235.69C302.234 234.983 302.826 234.429 303.568 234.028C304.309 233.628 305.127 233.33 306.022 233.134C306.926 232.929 307.833 232.767 308.745 232.648C309.939 232.494 310.906 232.379 311.647 232.303C312.397 232.217 312.943 232.077 313.284 231.881C313.633 231.685 313.808 231.344 313.808 230.858V230.756C313.808 229.494 313.463 228.514 312.772 227.815C312.091 227.116 311.055 226.767 309.666 226.767C308.225 226.767 307.096 227.082 306.278 227.713C305.46 228.344 304.885 229.017 304.552 229.733L301.689 228.71C302.2 227.517 302.882 226.588 303.734 225.923C304.595 225.25 305.532 224.781 306.547 224.517C307.569 224.244 308.575 224.108 309.564 224.108C310.194 224.108 310.919 224.185 311.737 224.338C312.564 224.483 313.36 224.786 314.127 225.246C314.903 225.706 315.547 226.401 316.058 227.33C316.569 228.259 316.825 229.503 316.825 231.062V244H313.808V241.341H313.654C313.45 241.767 313.109 242.223 312.632 242.709C312.154 243.195 311.52 243.608 310.727 243.949C309.934 244.29 308.967 244.46 307.825 244.46ZM308.285 241.75C309.478 241.75 310.484 241.516 311.302 241.047C312.129 240.578 312.751 239.973 313.169 239.232C313.595 238.49 313.808 237.71 313.808 236.892V234.131C313.68 234.284 313.399 234.425 312.964 234.553C312.538 234.672 312.044 234.778 311.481 234.872C310.927 234.957 310.386 235.034 309.858 235.102C309.338 235.162 308.916 235.213 308.592 235.256C307.808 235.358 307.075 235.524 306.393 235.754C305.72 235.976 305.174 236.312 304.757 236.764C304.348 237.207 304.143 237.812 304.143 238.58C304.143 239.628 304.531 240.42 305.306 240.957C306.091 241.486 307.083 241.75 308.285 241.75ZM330.309 244.409C328.468 244.409 326.883 243.974 325.553 243.105C324.224 242.236 323.201 241.038 322.485 239.513C321.769 237.987 321.411 236.244 321.411 234.284C321.411 232.29 321.778 230.53 322.511 229.004C323.252 227.47 324.283 226.273 325.604 225.412C326.934 224.543 328.485 224.108 330.258 224.108C331.638 224.108 332.883 224.364 333.991 224.875C335.099 225.386 336.006 226.102 336.714 227.023C337.421 227.943 337.86 229.017 338.031 230.244H335.013C334.783 229.349 334.272 228.557 333.479 227.866C332.695 227.168 331.638 226.818 330.309 226.818C329.133 226.818 328.102 227.125 327.215 227.739C326.337 228.344 325.651 229.2 325.157 230.308C324.671 231.408 324.428 232.699 324.428 234.182C324.428 235.699 324.667 237.02 325.144 238.145C325.63 239.27 326.312 240.143 327.19 240.766C328.076 241.388 329.116 241.699 330.309 241.699C331.093 241.699 331.805 241.562 332.444 241.29C333.083 241.017 333.624 240.625 334.067 240.114C334.511 239.602 334.826 238.989 335.013 238.273H338.031C337.86 239.432 337.438 240.476 336.765 241.405C336.1 242.325 335.218 243.058 334.119 243.604C333.028 244.141 331.758 244.409 330.309 244.409ZM345.254 236.841L345.202 233.108H345.816L354.407 224.364H358.14L348.987 233.619H348.731L345.254 236.841ZM342.441 244V217.818H345.458V244H342.441ZM354.918 244L347.248 234.284L349.396 232.188L358.754 244H354.918ZM369.141 251.773C367.683 251.773 366.43 251.585 365.382 251.21C364.334 250.844 363.46 250.358 362.761 249.753C362.071 249.156 361.521 248.517 361.112 247.835L363.516 246.148C363.788 246.506 364.134 246.915 364.551 247.375C364.969 247.844 365.54 248.249 366.264 248.589C366.997 248.939 367.956 249.114 369.141 249.114C370.726 249.114 372.034 248.73 373.065 247.963C374.097 247.196 374.612 245.994 374.612 244.358V240.369H374.357C374.135 240.727 373.82 241.17 373.411 241.699C373.01 242.219 372.43 242.683 371.672 243.092C370.922 243.493 369.908 243.693 368.629 243.693C367.044 243.693 365.621 243.318 364.359 242.568C363.107 241.818 362.114 240.727 361.381 239.295C360.656 237.864 360.294 236.125 360.294 234.08C360.294 232.068 360.648 230.317 361.355 228.825C362.063 227.325 363.047 226.166 364.308 225.348C365.57 224.521 367.027 224.108 368.68 224.108C369.959 224.108 370.973 224.321 371.723 224.747C372.482 225.165 373.061 225.642 373.462 226.179C373.871 226.707 374.186 227.142 374.408 227.483H374.714V224.364H377.629V244.562C377.629 246.25 377.246 247.622 376.479 248.679C375.72 249.744 374.697 250.524 373.411 251.018C372.132 251.521 370.709 251.773 369.141 251.773ZM369.038 240.983C370.249 240.983 371.271 240.706 372.107 240.152C372.942 239.598 373.577 238.801 374.011 237.761C374.446 236.722 374.663 235.477 374.663 234.028C374.663 232.614 374.45 231.365 374.024 230.283C373.598 229.2 372.967 228.352 372.132 227.739C371.297 227.125 370.266 226.818 369.038 226.818C367.76 226.818 366.695 227.142 365.842 227.79C364.999 228.437 364.364 229.307 363.938 230.398C363.52 231.489 363.311 232.699 363.311 234.028C363.311 235.392 363.524 236.598 363.95 237.646C364.385 238.686 365.024 239.504 365.868 240.101C366.72 240.689 367.777 240.983 369.038 240.983ZM383.152 244V224.364H386.067V227.33H386.271C386.629 226.358 387.277 225.57 388.214 224.964C389.152 224.359 390.209 224.057 391.385 224.057C391.607 224.057 391.884 224.061 392.216 224.07C392.548 224.078 392.8 224.091 392.97 224.108V227.176C392.868 227.151 392.634 227.112 392.267 227.061C391.909 227.001 391.53 226.972 391.129 226.972C390.175 226.972 389.322 227.172 388.572 227.572C387.831 227.964 387.243 228.51 386.808 229.209C386.382 229.899 386.169 230.687 386.169 231.574V244H383.152ZM403.926 244.409C402.153 244.409 400.598 243.987 399.26 243.143C397.93 242.3 396.891 241.119 396.141 239.602C395.399 238.085 395.028 236.312 395.028 234.284C395.028 232.239 395.399 230.453 396.141 228.928C396.891 227.402 397.93 226.217 399.26 225.374C400.598 224.53 402.153 224.108 403.926 224.108C405.699 224.108 407.25 224.53 408.58 225.374C409.918 226.217 410.957 227.402 411.699 228.928C412.449 230.453 412.824 232.239 412.824 234.284C412.824 236.312 412.449 238.085 411.699 239.602C410.957 241.119 409.918 242.3 408.58 243.143C407.25 243.987 405.699 244.409 403.926 244.409ZM403.926 241.699C405.273 241.699 406.381 241.354 407.25 240.663C408.119 239.973 408.763 239.065 409.18 237.94C409.598 236.815 409.807 235.597 409.807 234.284C409.807 232.972 409.598 231.749 409.18 230.615C408.763 229.482 408.119 228.565 407.25 227.866C406.381 227.168 405.273 226.818 403.926 226.818C402.58 226.818 401.472 227.168 400.602 227.866C399.733 228.565 399.089 229.482 398.672 230.615C398.254 231.749 398.045 232.972 398.045 234.284C398.045 235.597 398.254 236.815 398.672 237.94C399.089 239.065 399.733 239.973 400.602 240.663C401.472 241.354 402.58 241.699 403.926 241.699ZM429.804 235.972V224.364H432.821V244H429.804V240.676H429.6C429.14 241.673 428.424 242.521 427.452 243.22C426.48 243.911 425.253 244.256 423.77 244.256C422.543 244.256 421.452 243.987 420.498 243.45C419.543 242.905 418.793 242.087 418.248 240.996C417.702 239.896 417.429 238.511 417.429 236.841V224.364H420.446V236.636C420.446 238.068 420.847 239.21 421.648 240.062C422.458 240.915 423.489 241.341 424.742 241.341C425.492 241.341 426.255 241.149 427.03 240.766C427.814 240.382 428.471 239.794 428.999 239.001C429.536 238.209 429.804 237.199 429.804 235.972ZM441.364 232.188V244H438.347V224.364H441.262V227.432H441.518C441.978 226.435 442.677 225.634 443.614 225.028C444.552 224.415 445.762 224.108 447.245 224.108C448.575 224.108 449.738 224.381 450.735 224.926C451.732 225.463 452.508 226.281 453.062 227.381C453.616 228.472 453.893 229.852 453.893 231.523V244H450.876V231.727C450.876 230.185 450.475 228.983 449.674 228.122C448.873 227.253 447.773 226.818 446.376 226.818C445.413 226.818 444.552 227.027 443.793 227.445C443.043 227.862 442.451 228.472 442.016 229.273C441.582 230.074 441.364 231.045 441.364 232.188ZM466.821 244.409C465.184 244.409 463.74 243.996 462.487 243.169C461.234 242.334 460.254 241.158 459.547 239.641C458.839 238.115 458.485 236.312 458.485 234.233C458.485 232.17 458.839 230.381 459.547 228.864C460.254 227.347 461.238 226.175 462.5 225.348C463.761 224.521 465.218 224.108 466.872 224.108C468.15 224.108 469.16 224.321 469.902 224.747C470.652 225.165 471.223 225.642 471.615 226.179C472.015 226.707 472.326 227.142 472.548 227.483H472.804V217.818H475.821V244H472.906V240.983H472.548C472.326 241.341 472.011 241.793 471.602 242.338C471.193 242.875 470.609 243.357 469.85 243.783C469.092 244.2 468.082 244.409 466.821 244.409ZM467.23 241.699C468.44 241.699 469.463 241.384 470.298 240.753C471.133 240.114 471.768 239.232 472.203 238.107C472.637 236.973 472.855 235.665 472.855 234.182C472.855 232.716 472.642 231.433 472.216 230.334C471.789 229.226 471.159 228.365 470.324 227.751C469.488 227.129 468.457 226.818 467.23 226.818C465.951 226.818 464.886 227.146 464.034 227.803C463.19 228.45 462.555 229.332 462.129 230.449C461.711 231.557 461.502 232.801 461.502 234.182C461.502 235.58 461.716 236.849 462.142 237.991C462.576 239.125 463.216 240.028 464.059 240.702C464.912 241.366 465.968 241.699 467.23 241.699Z" fill="white" />
            <rect x="720" y="195" width="218" height="72" rx="16" fill="white" fill-opacity="0.1" />
            <rect x="721" y="196" width="216" height="70" rx="15" stroke="white" stroke-opacity="0.05" strokeWidth="2" />
            <path d="M771.068 226C770.787 225.139 770.416 224.368 769.956 223.686C769.504 222.996 768.963 222.408 768.332 221.922C767.71 221.436 767.003 221.065 766.21 220.81C765.418 220.554 764.548 220.426 763.602 220.426C762.051 220.426 760.641 220.827 759.371 221.628C758.101 222.429 757.091 223.609 756.341 225.169C755.591 226.729 755.216 228.642 755.216 230.909C755.216 233.176 755.595 235.089 756.354 236.649C757.112 238.209 758.139 239.389 759.435 240.19C760.73 240.991 762.188 241.392 763.807 241.392C765.307 241.392 766.628 241.072 767.77 240.433C768.92 239.786 769.815 238.874 770.455 237.697C771.102 236.513 771.426 235.119 771.426 233.517L772.398 233.722H764.523V230.909H774.494V233.722C774.494 235.878 774.034 237.753 773.114 239.347C772.202 240.94 770.94 242.176 769.33 243.054C767.727 243.923 765.886 244.358 763.807 244.358C761.489 244.358 759.452 243.812 757.696 242.722C755.949 241.631 754.585 240.08 753.605 238.068C752.634 236.057 752.148 233.67 752.148 230.909C752.148 228.838 752.425 226.976 752.979 225.322C753.541 223.661 754.334 222.246 755.357 221.078C756.379 219.911 757.589 219.016 758.987 218.393C760.385 217.771 761.923 217.46 763.602 217.46C764.983 217.46 766.27 217.669 767.463 218.087C768.665 218.496 769.734 219.08 770.672 219.838C771.618 220.588 772.406 221.487 773.037 222.536C773.668 223.575 774.102 224.73 774.341 226H771.068ZM787.748 244.409C785.856 244.409 784.224 243.991 782.852 243.156C781.488 242.312 780.436 241.136 779.694 239.628C778.961 238.111 778.595 236.347 778.595 234.335C778.595 232.324 778.961 230.551 779.694 229.017C780.436 227.474 781.467 226.273 782.788 225.412C784.118 224.543 785.669 224.108 787.441 224.108C788.464 224.108 789.474 224.278 790.471 224.619C791.468 224.96 792.376 225.514 793.194 226.281C794.012 227.04 794.664 228.045 795.15 229.298C795.636 230.551 795.879 232.094 795.879 233.926V235.205H780.743V232.597H792.811C792.811 231.489 792.589 230.5 792.146 229.631C791.711 228.761 791.089 228.075 790.279 227.572C789.478 227.07 788.532 226.818 787.441 226.818C786.24 226.818 785.2 227.116 784.322 227.713C783.453 228.301 782.784 229.068 782.315 230.014C781.846 230.96 781.612 231.974 781.612 233.057V234.795C781.612 236.278 781.868 237.536 782.379 238.567C782.899 239.589 783.619 240.369 784.539 240.906C785.46 241.435 786.529 241.699 787.748 241.699C788.541 241.699 789.257 241.588 789.896 241.366C790.544 241.136 791.102 240.795 791.571 240.344C792.039 239.884 792.402 239.312 792.657 238.631L795.572 239.449C795.265 240.438 794.75 241.307 794.025 242.057C793.301 242.798 792.406 243.378 791.341 243.795C790.275 244.205 789.078 244.409 787.748 244.409ZM803.485 232.188V244H800.468V224.364H803.383V227.432H803.639C804.099 226.435 804.798 225.634 805.735 225.028C806.673 224.415 807.883 224.108 809.366 224.108C810.696 224.108 811.859 224.381 812.856 224.926C813.853 225.463 814.629 226.281 815.183 227.381C815.737 228.472 816.014 229.852 816.014 231.523V244H812.997V231.727C812.997 230.185 812.596 228.983 811.795 228.122C810.994 227.253 809.895 226.818 808.497 226.818C807.534 226.818 806.673 227.027 805.914 227.445C805.164 227.862 804.572 228.472 804.137 229.273C803.703 230.074 803.485 231.045 803.485 232.188ZM829.76 244.409C827.868 244.409 826.236 243.991 824.864 243.156C823.5 242.312 822.447 241.136 821.706 239.628C820.973 238.111 820.607 236.347 820.607 234.335C820.607 232.324 820.973 230.551 821.706 229.017C822.447 227.474 823.479 226.273 824.8 225.412C826.129 224.543 827.68 224.108 829.453 224.108C830.476 224.108 831.486 224.278 832.483 224.619C833.48 224.96 834.388 225.514 835.206 226.281C836.024 227.04 836.676 228.045 837.162 229.298C837.648 230.551 837.891 232.094 837.891 233.926V235.205H822.754V232.597H834.822C834.822 231.489 834.601 230.5 834.158 229.631C833.723 228.761 833.101 228.075 832.291 227.572C831.49 227.07 830.544 226.818 829.453 226.818C828.251 226.818 827.212 227.116 826.334 227.713C825.464 228.301 824.795 229.068 824.327 230.014C823.858 230.96 823.624 231.974 823.624 233.057V234.795C823.624 236.278 823.879 237.536 824.391 238.567C824.911 239.589 825.631 240.369 826.551 240.906C827.472 241.435 828.541 241.699 829.76 241.699C830.553 241.699 831.268 241.588 831.908 241.366C832.555 241.136 833.114 240.795 833.582 240.344C834.051 239.884 834.413 239.312 834.669 238.631L837.584 239.449C837.277 240.438 836.761 241.307 836.037 242.057C835.313 242.798 834.418 243.378 833.352 243.795C832.287 244.205 831.089 244.409 829.76 244.409ZM842.48 244V224.364H845.395V227.33H845.599C845.957 226.358 846.605 225.57 847.543 224.964C848.48 224.359 849.537 224.057 850.713 224.057C850.935 224.057 851.212 224.061 851.544 224.07C851.876 224.078 852.128 224.091 852.298 224.108V227.176C852.196 227.151 851.962 227.112 851.595 227.061C851.237 227.001 850.858 226.972 850.457 226.972C849.503 226.972 848.651 227.172 847.901 227.572C847.159 227.964 846.571 228.51 846.136 229.209C845.71 229.899 845.497 230.687 845.497 231.574V244H842.48ZM861.653 244.46C860.409 244.46 859.279 244.226 858.265 243.757C857.251 243.28 856.446 242.594 855.849 241.699C855.252 240.795 854.954 239.705 854.954 238.426C854.954 237.301 855.176 236.389 855.619 235.69C856.062 234.983 856.654 234.429 857.396 234.028C858.137 233.628 858.956 233.33 859.85 233.134C860.754 232.929 861.662 232.767 862.574 232.648C863.767 232.494 864.734 232.379 865.475 232.303C866.225 232.217 866.771 232.077 867.112 231.881C867.461 231.685 867.636 231.344 867.636 230.858V230.756C867.636 229.494 867.291 228.514 866.6 227.815C865.919 227.116 864.883 226.767 863.494 226.767C862.054 226.767 860.924 227.082 860.106 227.713C859.288 228.344 858.713 229.017 858.38 229.733L855.517 228.71C856.028 227.517 856.71 226.588 857.562 225.923C858.423 225.25 859.36 224.781 860.375 224.517C861.397 224.244 862.403 224.108 863.392 224.108C864.022 224.108 864.747 224.185 865.565 224.338C866.392 224.483 867.189 224.786 867.956 225.246C868.731 225.706 869.375 226.401 869.886 227.33C870.397 228.259 870.653 229.503 870.653 231.062V244H867.636V241.341H867.483C867.278 241.767 866.937 242.223 866.46 242.709C865.983 243.195 865.348 243.608 864.555 243.949C863.762 244.29 862.795 244.46 861.653 244.46ZM862.113 241.75C863.306 241.75 864.312 241.516 865.13 241.047C865.957 240.578 866.579 239.973 866.997 239.232C867.423 238.49 867.636 237.71 867.636 236.892V234.131C867.508 234.284 867.227 234.425 866.792 234.553C866.366 234.672 865.872 234.778 865.309 234.872C864.755 234.957 864.214 235.034 863.686 235.102C863.166 235.162 862.744 235.213 862.42 235.256C861.636 235.358 860.903 235.524 860.221 235.754C859.548 235.976 859.002 236.312 858.585 236.764C858.176 237.207 857.971 237.812 857.971 238.58C857.971 239.628 858.359 240.42 859.135 240.957C859.919 241.486 860.912 241.75 862.113 241.75ZM884.7 224.364V226.92H874.523V224.364H884.7ZM877.489 219.659H880.506V238.375C880.506 239.227 880.63 239.866 880.877 240.293C881.133 240.71 881.457 240.991 881.849 241.136C882.249 241.273 882.671 241.341 883.114 241.341C883.447 241.341 883.719 241.324 883.933 241.29C884.146 241.247 884.316 241.213 884.444 241.188L885.058 243.898C884.853 243.974 884.567 244.051 884.201 244.128C883.835 244.213 883.37 244.256 882.808 244.256C881.955 244.256 881.12 244.072 880.302 243.706C879.492 243.339 878.819 242.781 878.282 242.031C877.754 241.281 877.489 240.335 877.489 239.193V219.659ZM897.26 244.409C895.368 244.409 893.736 243.991 892.364 243.156C891 242.312 889.947 241.136 889.206 239.628C888.473 238.111 888.107 236.347 888.107 234.335C888.107 232.324 888.473 230.551 889.206 229.017C889.947 227.474 890.979 226.273 892.3 225.412C893.629 224.543 895.18 224.108 896.953 224.108C897.976 224.108 898.986 224.278 899.983 224.619C900.98 224.96 901.888 225.514 902.706 226.281C903.524 227.04 904.176 228.045 904.662 229.298C905.148 230.551 905.391 232.094 905.391 233.926V235.205H890.254V232.597H902.322C902.322 231.489 902.101 230.5 901.658 229.631C901.223 228.761 900.601 228.075 899.791 227.572C898.99 227.07 898.044 226.818 896.953 226.818C895.751 226.818 894.712 227.116 893.834 227.713C892.964 228.301 892.295 229.068 891.827 230.014C891.358 230.96 891.124 231.974 891.124 233.057V234.795C891.124 236.278 891.379 237.536 891.891 238.567C892.411 239.589 893.131 240.369 894.051 240.906C894.972 241.435 896.041 241.699 897.26 241.699C898.053 241.699 898.768 241.588 899.408 241.366C900.055 241.136 900.614 240.795 901.082 240.344C901.551 239.884 901.913 239.312 902.169 238.631L905.084 239.449C904.777 240.438 904.261 241.307 903.537 242.057C902.813 242.798 901.918 243.378 900.852 243.795C899.787 244.205 898.589 244.409 897.26 244.409Z" fill="white" />
            <rect x="541" y="195" width="148" height="72.8069" rx="16" fill="white" fill-opacity="0.1" />
            <rect x="542" y="196" width="146" height="70.8069" rx="15" stroke="white" stroke-opacity="0.05" strokeWidth="2" />
            <path d="M599.552 228.623L598.224 232.575C597.731 234.077 596.893 235.442 595.775 236.561C594.658 237.679 593.294 238.52 591.792 239.014L587.795 240.341C587.66 240.385 587.543 240.471 587.459 240.586C587.375 240.7 587.33 240.839 587.33 240.981C587.33 241.123 587.375 241.261 587.459 241.376C587.543 241.491 587.66 241.576 587.795 241.62L591.792 242.948C593.28 243.442 594.631 244.277 595.739 245.386C596.848 246.495 597.682 247.847 598.175 249.335L599.5 253.337C599.543 253.473 599.628 253.592 599.743 253.677C599.858 253.761 599.997 253.807 600.14 253.807C600.282 253.807 600.421 253.761 600.536 253.677C600.651 253.592 600.736 253.473 600.779 253.337L602.155 249.384C602.649 247.897 603.483 246.545 604.591 245.437C605.699 244.328 607.049 243.492 608.536 242.996L612.535 241.669C612.67 241.625 612.788 241.54 612.871 241.425C612.955 241.31 613 241.172 613 241.03C613 240.888 612.955 240.749 612.871 240.635C612.788 240.52 612.67 240.434 612.535 240.39L608.588 239.014C607.085 238.521 605.72 237.681 604.603 236.562C603.485 235.444 602.647 234.078 602.155 232.575L600.828 228.574C600.791 228.475 600.731 228.386 600.653 228.315C600.575 228.243 600.481 228.191 600.379 228.162C600.278 228.134 600.171 228.13 600.067 228.15C599.963 228.17 599.866 228.215 599.783 228.28C599.671 228.367 599.59 228.486 599.552 228.623ZM579.884 217.16L578.921 220.032C578.562 221.125 577.952 222.118 577.139 222.931C576.326 223.745 575.333 224.356 574.24 224.715L571.333 225.681C571.236 225.713 571.152 225.776 571.092 225.859C571.032 225.942 571 226.042 571 226.145C571 226.247 571.032 226.347 571.092 226.431C571.152 226.514 571.236 226.576 571.333 226.609L574.24 227.577C575.322 227.937 576.305 228.544 577.111 229.35C577.917 230.156 578.524 231.138 578.883 232.22L579.847 235.132C579.879 235.229 579.942 235.313 580.025 235.373C580.108 235.433 580.208 235.465 580.311 235.465C580.414 235.465 580.514 235.433 580.597 235.373C580.68 235.313 580.743 235.229 580.775 235.132L581.778 232.257C582.139 231.176 582.746 230.194 583.552 229.388C584.357 228.582 585.34 227.975 586.421 227.615L589.326 226.647C589.423 226.614 589.508 226.551 589.567 226.468C589.627 226.385 589.659 226.285 589.659 226.182C589.659 226.08 589.627 225.98 589.567 225.896C589.508 225.813 589.423 225.751 589.326 225.718L586.456 224.715C585.364 224.356 584.371 223.745 583.559 222.932C582.746 222.118 582.136 221.125 581.778 220.032L580.813 217.123C580.776 217.027 580.71 216.945 580.625 216.888C580.539 216.832 580.438 216.803 580.335 216.807C580.232 216.812 580.133 216.848 580.053 216.911C579.972 216.975 579.913 217.062 579.884 217.16ZM598.196 209.177L597.713 210.614C597.534 211.16 597.23 211.657 596.824 212.064C596.417 212.471 595.921 212.776 595.375 212.956L593.922 213.439C593.886 213.451 593.853 213.471 593.825 213.498C593.798 213.525 593.778 213.558 593.766 213.595C593.754 213.631 593.751 213.67 593.757 213.708C593.763 213.746 593.778 213.781 593.801 213.812C593.83 213.855 593.873 213.887 593.922 213.903L595.375 214.386C595.916 214.566 596.408 214.869 596.811 215.272C597.214 215.675 597.517 216.167 597.697 216.708L598.177 218.164C598.193 218.213 598.224 218.256 598.266 218.287C598.308 218.317 598.359 218.334 598.411 218.334C598.463 218.334 598.513 218.317 598.555 218.287C598.597 218.256 598.628 218.213 598.644 218.164L599.143 216.726C599.324 216.186 599.627 215.695 600.03 215.292C600.433 214.889 600.924 214.585 601.465 214.405L602.918 213.922C602.968 213.906 603.011 213.875 603.041 213.833C603.072 213.791 603.088 213.741 603.088 213.689C603.088 213.637 603.072 213.586 603.041 213.544C603.011 213.502 602.968 213.471 602.918 213.455L601.483 212.956C600.937 212.777 600.44 212.471 600.034 212.064C599.627 211.657 599.322 211.161 599.143 210.614L598.66 209.158C598.642 209.11 598.609 209.069 598.566 209.041C598.524 209.012 598.473 208.998 598.422 209C598.37 209.002 598.321 209.02 598.28 209.052C598.24 209.084 598.21 209.127 598.196 209.177Z" stroke="white" strokeWidth="3" stroke-linecap="round" stroke-linejoin="round" />
            <path d="M659 226.153L648.5 236.653L638 226.153" stroke="white" stroke-opacity="0.4" strokeWidth="3" stroke-linecap="round" stroke-linejoin="round" />
            <path d="M433.352 72.8182H436.523V90.1534C436.523 91.9432 436.101 93.5412 435.257 94.9474C434.422 96.3452 433.241 97.4489 431.716 98.2585C430.19 99.0597 428.401 99.4602 426.347 99.4602C424.293 99.4602 422.503 99.0597 420.977 98.2585C419.452 97.4489 418.267 96.3452 417.423 94.9474C416.588 93.5412 416.17 91.9432 416.17 90.1534V72.8182H419.341V89.8977C419.341 91.1761 419.622 92.3139 420.185 93.3111C420.747 94.2997 421.548 95.0795 422.588 95.6506C423.636 96.2131 424.889 96.4943 426.347 96.4943C427.804 96.4943 429.057 96.2131 430.105 95.6506C431.153 95.0795 431.955 94.2997 432.509 93.3111C433.071 92.3139 433.352 91.1761 433.352 89.8977V72.8182ZM442.445 106.364V79.3636H445.36V82.483H445.718C445.939 82.142 446.246 81.7074 446.638 81.179C447.039 80.642 447.61 80.1648 448.351 79.7472C449.101 79.321 450.115 79.108 451.394 79.108C453.047 79.108 454.505 79.5213 455.766 80.348C457.027 81.1747 458.012 82.3466 458.719 83.8636C459.426 85.3807 459.78 87.1705 459.78 89.233C459.78 91.3125 459.426 93.1151 458.719 94.6406C458.012 96.1577 457.032 97.3338 455.779 98.169C454.526 98.9957 453.081 99.4091 451.445 99.4091C450.184 99.4091 449.174 99.2003 448.415 98.7827C447.657 98.3565 447.073 97.875 446.664 97.3381C446.255 96.7926 445.939 96.3409 445.718 95.983H445.462V106.364H442.445ZM445.411 89.1818C445.411 90.6648 445.628 91.973 446.063 93.1065C446.498 94.2315 447.132 95.1136 447.968 95.7528C448.803 96.3835 449.826 96.6989 451.036 96.6989C452.297 96.6989 453.35 96.3665 454.194 95.7017C455.046 95.0284 455.685 94.125 456.111 92.9915C456.546 91.8494 456.763 90.5795 456.763 89.1818C456.763 87.8011 456.55 86.5568 456.124 85.4489C455.706 84.3324 455.071 83.4503 454.219 82.8026C453.375 82.1463 452.314 81.8182 451.036 81.8182C449.809 81.8182 448.777 82.1293 447.942 82.7514C447.107 83.3651 446.476 84.2259 446.05 85.3338C445.624 86.4332 445.411 87.7159 445.411 89.1818ZM467.4 72.8182V99H464.382V72.8182H467.4ZM480.903 99.4091C479.13 99.4091 477.575 98.9872 476.237 98.1435C474.907 97.2997 473.867 96.1193 473.117 94.6023C472.376 93.0852 472.005 91.3125 472.005 89.2841C472.005 87.2386 472.376 85.4531 473.117 83.9276C473.867 82.402 474.907 81.2173 476.237 80.3736C477.575 79.5298 479.13 79.108 480.903 79.108C482.675 79.108 484.227 79.5298 485.556 80.3736C486.894 81.2173 487.934 82.402 488.675 83.9276C489.425 85.4531 489.8 87.2386 489.8 89.2841C489.8 91.3125 489.425 93.0852 488.675 94.6023C487.934 96.1193 486.894 97.2997 485.556 98.1435C484.227 98.9872 482.675 99.4091 480.903 99.4091ZM480.903 96.6989C482.249 96.6989 483.357 96.3537 484.227 95.6634C485.096 94.973 485.739 94.0653 486.157 92.9403C486.575 91.8153 486.783 90.5966 486.783 89.2841C486.783 87.9716 486.575 86.7486 486.157 85.6151C485.739 84.4815 485.096 83.5653 484.227 82.8665C483.357 82.1676 482.249 81.8182 480.903 81.8182C479.556 81.8182 478.448 82.1676 477.579 82.8665C476.71 83.5653 476.066 84.4815 475.648 85.6151C475.231 86.7486 475.022 87.9716 475.022 89.2841C475.022 90.5966 475.231 91.8153 475.648 92.9403C476.066 94.0653 476.71 94.973 477.579 95.6634C478.448 96.3537 479.556 96.6989 480.903 96.6989ZM500.184 99.4602C498.94 99.4602 497.811 99.2259 496.797 98.7571C495.782 98.2798 494.977 97.5938 494.38 96.6989C493.784 95.7955 493.485 94.7045 493.485 93.4261C493.485 92.3011 493.707 91.3892 494.15 90.6903C494.593 89.983 495.186 89.429 495.927 89.0284C496.669 88.6278 497.487 88.3295 498.382 88.1335C499.285 87.929 500.193 87.767 501.105 87.6477C502.298 87.4943 503.265 87.3793 504.007 87.3026C504.757 87.2173 505.302 87.0767 505.643 86.8807C505.993 86.6847 506.167 86.3437 506.167 85.858V85.7557C506.167 84.4943 505.822 83.5142 505.132 82.8153C504.45 82.1165 503.414 81.767 502.025 81.767C500.585 81.767 499.456 82.0824 498.637 82.7131C497.819 83.3437 497.244 84.017 496.912 84.733L494.048 83.7102C494.559 82.517 495.241 81.5881 496.093 80.9233C496.954 80.25 497.892 79.7812 498.906 79.517C499.929 79.2443 500.934 79.108 501.923 79.108C502.554 79.108 503.278 79.1847 504.096 79.3381C504.923 79.483 505.72 79.7855 506.487 80.2457C507.262 80.706 507.906 81.4006 508.417 82.3295C508.929 83.2585 509.184 84.5028 509.184 86.0625V99H506.167V96.3409H506.014C505.809 96.767 505.468 97.223 504.991 97.7088C504.514 98.1946 503.879 98.608 503.086 98.9489C502.294 99.2898 501.326 99.4602 500.184 99.4602ZM500.645 96.75C501.838 96.75 502.843 96.5156 503.662 96.0469C504.488 95.5781 505.11 94.973 505.528 94.2315C505.954 93.4901 506.167 92.7102 506.167 91.892V89.1307C506.039 89.2841 505.758 89.4247 505.324 89.5526C504.897 89.6719 504.403 89.7784 503.841 89.8722C503.287 89.9574 502.745 90.0341 502.217 90.1023C501.697 90.1619 501.275 90.2131 500.951 90.2557C500.167 90.358 499.434 90.5241 498.752 90.7543C498.079 90.9759 497.534 91.3125 497.116 91.7642C496.707 92.2074 496.502 92.8125 496.502 93.5795C496.502 94.6278 496.89 95.4205 497.666 95.9574C498.45 96.4858 499.443 96.75 500.645 96.75ZM522.106 99.4091C520.469 99.4091 519.025 98.9957 517.772 98.169C516.519 97.3338 515.539 96.1577 514.832 94.6406C514.124 93.1151 513.771 91.3125 513.771 89.233C513.771 87.1705 514.124 85.3807 514.832 83.8636C515.539 82.3466 516.523 81.1747 517.785 80.348C519.046 79.5213 520.504 79.108 522.157 79.108C523.435 79.108 524.445 79.321 525.187 79.7472C525.937 80.1648 526.508 80.642 526.9 81.179C527.3 81.7074 527.612 82.142 527.833 82.483H528.089V72.8182H531.106V99H528.191V95.983H527.833C527.612 96.3409 527.296 96.7926 526.887 97.3381C526.478 97.875 525.894 98.3565 525.136 98.7827C524.377 99.2003 523.367 99.4091 522.106 99.4091ZM522.515 96.6989C523.725 96.6989 524.748 96.3835 525.583 95.7528C526.418 95.1136 527.053 94.2315 527.488 93.1065C527.923 91.973 528.14 90.6648 528.14 89.1818C528.14 87.7159 527.927 86.4332 527.501 85.3338C527.075 84.2259 526.444 83.3651 525.609 82.7514C524.773 82.1293 523.742 81.8182 522.515 81.8182C521.237 81.8182 520.171 82.1463 519.319 82.8026C518.475 83.4503 517.84 84.3324 517.414 85.4489C516.996 86.5568 516.788 87.8011 516.788 89.1818C516.788 90.5795 517.001 91.8494 517.427 92.9915C517.862 94.125 518.501 95.0284 519.344 95.7017C520.197 96.3665 521.254 96.6989 522.515 96.6989Z" fill="white" fill-opacity="0.7" />
            <path d="M371.078 78.2716L375.2 74.1306V91.3969C375.2 91.8744 375.39 92.3323 375.727 92.67C376.065 93.0076 376.523 93.1973 377 93.1973C377.477 93.1973 377.935 93.0076 378.273 92.67C378.61 92.3323 378.8 91.8744 378.8 91.3969V74.1306L382.922 78.2716C383.089 78.4403 383.288 78.5743 383.508 78.6657C383.727 78.7571 383.962 78.8042 384.2 78.8042C384.438 78.8042 384.673 78.7571 384.892 78.6657C385.112 78.5743 385.311 78.4403 385.478 78.2716C385.647 78.1042 385.781 77.9051 385.872 77.6857C385.963 77.4663 386.01 77.2309 386.01 76.9933C386.01 76.7556 385.963 76.5203 385.872 76.3009C385.781 76.0815 385.647 75.8823 385.478 75.7149L378.278 68.5132C378.107 68.3492 377.905 68.2207 377.684 68.1351C377.246 67.955 376.754 67.955 376.316 68.1351C376.095 68.2207 375.893 68.3492 375.722 68.5132L368.522 75.7149C368.354 75.8828 368.221 76.0821 368.13 76.3014C368.039 76.5208 367.993 76.7559 367.993 76.9933C367.993 77.2307 368.039 77.4658 368.13 77.6851C368.221 77.9044 368.354 78.1037 368.522 78.2716C368.69 78.4395 368.889 78.5726 369.108 78.6635C369.328 78.7543 369.563 78.8011 369.8 78.8011C370.037 78.8011 370.272 78.7543 370.492 78.6635C370.711 78.5726 370.91 78.4395 371.078 78.2716ZM393.2 85.9955C392.723 85.9955 392.265 86.1852 391.927 86.5228C391.59 86.8605 391.4 87.3184 391.4 87.796V98.5987C391.4 99.0762 391.21 99.5341 390.873 99.8718C390.535 100.209 390.077 100.399 389.6 100.399H364.4C363.923 100.399 363.465 100.209 363.127 99.8718C362.79 99.5341 362.6 99.0762 362.6 98.5987V87.796C362.6 87.3184 362.41 86.8605 362.073 86.5228C361.735 86.1852 361.277 85.9955 360.8 85.9955C360.323 85.9955 359.865 86.1852 359.527 86.5228C359.19 86.8605 359 87.3184 359 87.796V98.5987C359 100.031 359.569 101.405 360.582 102.418C361.594 103.431 362.968 104 364.4 104H389.6C391.032 104 392.406 103.431 393.418 102.418C394.431 101.405 395 100.031 395 98.5987V87.796C395 87.3184 394.81 86.8605 394.473 86.5228C394.135 86.1852 393.677 85.9955 393.2 85.9955Z" fill="white" fill-opacity="0.7" />
            <path d="M671.239 81H668.068C667.881 80.0881 667.553 79.2869 667.084 78.5966C666.624 77.9062 666.061 77.3267 665.396 76.858C664.74 76.3807 664.011 76.0227 663.21 75.7841C662.409 75.5455 661.574 75.4261 660.705 75.4261C659.119 75.4261 657.683 75.8267 656.396 76.6278C655.118 77.429 654.099 78.6094 653.341 80.169C652.591 81.7287 652.216 83.642 652.216 85.9091C652.216 88.1761 652.591 90.0895 653.341 91.6491C654.099 93.2088 655.118 94.3892 656.396 95.1903C657.683 95.9915 659.119 96.392 660.705 96.392C661.574 96.392 662.409 96.2727 663.21 96.0341C664.011 95.7955 664.74 95.4418 665.396 94.973C666.061 94.4957 666.624 93.9119 667.084 93.2216C667.553 92.5227 667.881 91.7216 668.068 90.8182H671.239C671 92.1562 670.565 93.3537 669.935 94.4105C669.304 95.4673 668.52 96.3665 667.582 97.108C666.645 97.8409 665.592 98.3991 664.425 98.7827C663.266 99.1662 662.026 99.358 660.705 99.358C658.472 99.358 656.486 98.8125 654.747 97.7216C653.009 96.6307 651.641 95.0795 650.643 93.0682C649.646 91.0568 649.148 88.6705 649.148 85.9091C649.148 83.1477 649.646 80.7614 650.643 78.75C651.641 76.7386 653.009 75.1875 654.747 74.0966C656.486 73.0057 658.472 72.4602 660.705 72.4602C662.026 72.4602 663.266 72.652 664.425 73.0355C665.592 73.419 666.645 73.9815 667.582 74.723C668.52 75.456 669.304 76.3509 669.935 77.4077C670.565 78.456 671 79.6534 671.239 81ZM688.328 90.9716V79.3636H691.345V99H688.328V95.6761H688.123C687.663 96.6733 686.947 97.5213 685.975 98.2202C685.004 98.9105 683.777 99.2557 682.294 99.2557C681.066 99.2557 679.975 98.9872 679.021 98.4503C678.066 97.9048 677.316 97.0866 676.771 95.9957C676.225 94.8963 675.953 93.5114 675.953 91.8409V79.3636H678.97V91.6364C678.97 93.0682 679.37 94.2102 680.172 95.0625C680.981 95.9148 682.012 96.3409 683.265 96.3409C684.015 96.3409 684.778 96.1491 685.554 95.7656C686.338 95.3821 686.994 94.794 687.522 94.0014C688.059 93.2088 688.328 92.1989 688.328 90.9716ZM710.78 83.7614L708.07 84.5284C707.899 84.0767 707.648 83.6378 707.315 83.2116C706.991 82.777 706.548 82.419 705.986 82.1378C705.423 81.8565 704.703 81.7159 703.825 81.7159C702.624 81.7159 701.622 81.9929 700.821 82.5469C700.028 83.0923 699.632 83.7869 699.632 84.6307C699.632 85.3807 699.905 85.973 700.45 86.4077C700.996 86.8423 701.848 87.2045 703.007 87.4943L705.922 88.2102C707.678 88.6364 708.986 89.2884 709.847 90.1662C710.707 91.0355 711.138 92.1562 711.138 93.5284C711.138 94.6534 710.814 95.6591 710.166 96.5455C709.527 97.4318 708.632 98.1307 707.482 98.642C706.331 99.1534 704.993 99.4091 703.467 99.4091C701.464 99.4091 699.807 98.9744 698.494 98.1051C697.182 97.2358 696.351 95.9659 696.001 94.2955L698.865 93.5795C699.138 94.6364 699.653 95.429 700.412 95.9574C701.179 96.4858 702.18 96.75 703.416 96.75C704.822 96.75 705.939 96.4517 706.766 95.8551C707.601 95.25 708.018 94.5256 708.018 93.6818C708.018 93 707.78 92.429 707.303 91.9688C706.825 91.5 706.092 91.1506 705.104 90.9205L701.831 90.1534C700.033 89.7273 698.712 89.0668 697.868 88.1719C697.033 87.2685 696.615 86.1392 696.615 84.7841C696.615 83.6761 696.926 82.696 697.548 81.8438C698.179 80.9915 699.036 80.3224 700.118 79.8366C701.209 79.3509 702.445 79.108 703.825 79.108C705.768 79.108 707.294 79.5341 708.402 80.3864C709.518 81.2386 710.311 82.3636 710.78 83.7614ZM724.219 79.3636V81.9205H714.043V79.3636H724.219ZM717.009 74.6591H720.026V93.375C720.026 94.2273 720.15 94.8665 720.397 95.2926C720.652 95.7102 720.976 95.9915 721.368 96.1364C721.769 96.2727 722.191 96.3409 722.634 96.3409C722.966 96.3409 723.239 96.3239 723.452 96.2898C723.665 96.2472 723.836 96.2131 723.963 96.1875L724.577 98.8977C724.373 98.9744 724.087 99.0511 723.721 99.1278C723.354 99.2131 722.89 99.2557 722.327 99.2557C721.475 99.2557 720.64 99.0724 719.821 98.706C719.012 98.3395 718.338 97.7812 717.801 97.0312C717.273 96.2812 717.009 95.3352 717.009 94.1932V74.6591ZM736.524 99.4091C734.751 99.4091 733.196 98.9872 731.858 98.1435C730.528 97.2997 729.488 96.1193 728.738 94.6023C727.997 93.0852 727.626 91.3125 727.626 89.2841C727.626 87.2386 727.997 85.4531 728.738 83.9276C729.488 82.402 730.528 81.2173 731.858 80.3736C733.196 79.5298 734.751 79.108 736.524 79.108C738.297 79.108 739.848 79.5298 741.177 80.3736C742.515 81.2173 743.555 82.402 744.297 83.9276C745.047 85.4531 745.422 87.2386 745.422 89.2841C745.422 91.3125 745.047 93.0852 744.297 94.6023C743.555 96.1193 742.515 97.2997 741.177 98.1435C739.848 98.9872 738.297 99.4091 736.524 99.4091ZM736.524 96.6989C737.87 96.6989 738.978 96.3537 739.848 95.6634C740.717 94.973 741.36 94.0653 741.778 92.9403C742.196 91.8153 742.404 90.5966 742.404 89.2841C742.404 87.9716 742.196 86.7486 741.778 85.6151C741.36 84.4815 740.717 83.5653 739.848 82.8665C738.978 82.1676 737.87 81.8182 736.524 81.8182C735.177 81.8182 734.069 82.1676 733.2 82.8665C732.331 83.5653 731.687 84.4815 731.27 85.6151C730.852 86.7486 730.643 87.9716 730.643 89.2841C730.643 90.5966 730.852 91.8153 731.27 92.9403C731.687 94.0653 732.331 94.973 733.2 95.6634C734.069 96.3537 735.177 96.6989 736.524 96.6989ZM750.027 99V79.3636H752.942V82.4318H753.197C753.607 81.3835 754.267 80.5696 755.179 79.9901C756.091 79.402 757.186 79.108 758.464 79.108C759.76 79.108 760.838 79.402 761.699 79.9901C762.568 80.5696 763.246 81.3835 763.732 82.4318H763.936C764.439 81.4176 765.193 80.6122 766.199 80.0156C767.205 79.4105 768.411 79.108 769.817 79.108C771.572 79.108 773.009 79.6577 774.125 80.7571C775.241 81.848 775.8 83.5483 775.8 85.858V99H772.783V85.858C772.783 84.4091 772.386 83.3736 771.594 82.7514C770.801 82.1293 769.868 81.8182 768.794 81.8182C767.413 81.8182 766.344 82.2358 765.585 83.071C764.827 83.8977 764.447 84.946 764.447 86.2159V99H761.379V85.5511C761.379 84.4347 761.017 83.5355 760.293 82.8537C759.568 82.1634 758.635 81.8182 757.493 81.8182C756.709 81.8182 755.976 82.027 755.294 82.4446C754.621 82.8622 754.075 83.4418 753.658 84.1832C753.249 84.9162 753.044 85.7642 753.044 86.7273V99H750.027Z" fill="white" fill-opacity="0.7" />
            <path fill-rule="evenodd" clip-rule="evenodd" d="M614 71C614.477 71 614.935 71.1896 615.273 71.5272C615.61 71.8648 615.8 72.3226 615.8 72.8V84.2H627.2C627.677 84.2 628.135 84.3896 628.473 84.7272C628.81 85.0648 629 85.5226 629 86C629 86.4774 628.81 86.9352 628.473 87.2728C628.135 87.6104 627.677 87.8 627.2 87.8H615.8V99.2C615.8 99.6774 615.61 100.135 615.273 100.473C614.935 100.81 614.477 101 614 101C613.523 101 613.065 100.81 612.727 100.473C612.39 100.135 612.2 99.6774 612.2 99.2V87.8H600.8C600.323 87.8 599.865 87.6104 599.527 87.2728C599.19 86.9352 599 86.4774 599 86C599 85.5226 599.19 85.0648 599.527 84.7272C599.865 84.3896 600.323 84.2 600.8 84.2H612.2V72.8C612.2 72.3226 612.39 71.8648 612.727 71.5272C613.065 71.1896 613.523 71 614 71Z" fill="white" fill-opacity="0.7" />
            <path fill-rule="evenodd" clip-rule="evenodd" d="M929.184 73.7279C929.589 74.133 929.817 74.6824 929.817 75.2553C929.817 75.8281 929.589 76.3775 929.184 76.7826L919.511 86.4558L929.184 96.1291C929.589 96.5341 929.817 97.0835 929.817 97.6564C929.817 98.2293 929.589 98.7787 929.184 99.1838C928.779 99.5888 928.229 99.8164 927.657 99.8164C927.084 99.8164 926.534 99.5888 926.129 99.1838L916.456 89.5105L906.783 99.1838C906.378 99.5888 905.828 99.8164 905.255 99.8164C904.683 99.8164 904.133 99.5888 903.728 99.1838C903.323 98.7787 903.095 98.2293 903.095 97.6564C903.095 97.0835 903.323 96.5341 903.728 96.1291L913.401 86.4558L903.728 76.7826C903.323 76.3775 903.095 75.8281 903.095 75.2553C903.095 74.6824 903.323 74.133 903.728 73.7279C904.133 73.3228 904.683 73.0953 905.255 73.0953C905.828 73.0953 906.378 73.3228 906.783 73.7279L916.456 83.4011L926.129 73.7279C926.534 73.3228 927.084 73.0953 927.657 73.0953C928.229 73.0953 928.779 73.3228 929.184 73.7279Z" fill="white" fill-opacity="0.7" />
            <line x1="2.99902" y1="150" x2="986.999" y2="149.037" stroke="white" stroke-opacity="0.2" strokeWidth="2" />
            <rect x="60" y="322" width="430" height="294" rx="20" fill="url(#paint2_linear_437_99)" />
            <rect x="520" y="322" width="418" height="294" rx="20" fill="url(#paint3_linear_437_99)" />
            <g filter="url(#filter0_d_437_99)">
                <mask id="path-24-inside-1_437_99" fill="white">
                    <path d="M188 322H361V524C361 531.732 354.732 538 347 538H202C194.268 538 188 531.732 188 524V322Z" />
                </mask>
                <path d="M188 322H361V524C361 531.732 354.732 538 347 538H202C194.268 538 188 531.732 188 524V322Z" fill="url(#paint4_linear_437_99)" shape-rendering="crispEdges" />
                <path d="M188 322H361H188ZM363 524C363 532.837 355.837 540 347 540H202C193.163 540 186 532.837 186 524H190C190 530.627 195.373 536 202 536H347C353.627 536 359 530.627 359 524H363ZM202 540C193.163 540 186 532.837 186 524V322H190V524C190 530.627 195.373 536 202 536V540ZM363 322V524C363 532.837 355.837 540 347 540V536C353.627 536 359 530.627 359 524V322H363Z" fill="white" fill-opacity="0.1" mask="url(#path-24-inside-1_437_99)" />
            </g>
            <g filter="url(#filter1_d_437_99)">
                <mask id="path-26-inside-2_437_99" fill="white">
                    <path d="M815 616L642 616L642 414C642 406.268 648.268 400 656 400L801 400C808.732 400 815 406.268 815 414L815 616Z" />
                </mask>
                <path d="M815 616L642 616L642 414C642 406.268 648.268 400 656 400L801 400C808.732 400 815 406.268 815 414L815 616Z" fill="url(#paint5_linear_437_99)" shape-rendering="crispEdges" />
                <path d="M815 616L642 616L815 616ZM640 414C640 405.163 647.163 398 656 398L801 398C809.837 398 817 405.163 817 414L813 414C813 407.373 807.627 402 801 402L656 402C649.373 402 644 407.373 644 414L640 414ZM801 398C809.837 398 817 405.163 817 414L817 616L813 616L813 414C813 407.373 807.627 402 801 402L801 398ZM640 616L640 414C640 405.163 647.163 398 656 398L656 402C649.373 402 644 407.373 644 414L644 616L640 616Z" fill="white" fill-opacity="0.1" mask="url(#path-26-inside-2_437_99)" />
            </g>
            <defs>
                <filter id="filter0_d_437_99" x="148" y="308" width="253" height="296" filterUnits="userSpaceOnUse" color-interpolation-filters="sRGB">
                    <feFlood flood-opacity="0" result="BackgroundImageFix" />
                    <feColorMatrix in="SourceAlpha" type="matrix" values="0 0 0 0 0 0 0 0 0 0 0 0 0 0 0 0 0 0 127 0" result="hardAlpha" />
                    <feOffset dy="26" />
                    <feGaussianBlur stdDeviation="20" />
                    <feComposite in2="hardAlpha" operator="out" />
                    <feColorMatrix type="matrix" values="0 0 0 0 0 0 0 0 0 0 0 0 0 0 0 0 0 0 0.1 0" />
                    <feBlend mode="normal" in2="BackgroundImageFix" result="effect1_dropShadow_437_99" />
                    <feBlend mode="normal" in="SourceGraphic" in2="effect1_dropShadow_437_99" result="shape" />
                </filter>
                <filter id="filter1_d_437_99" x="602" y="334" width="253" height="296" filterUnits="userSpaceOnUse" color-interpolation-filters="sRGB">
                    <feFlood flood-opacity="0" result="BackgroundImageFix" />
                    <feColorMatrix in="SourceAlpha" type="matrix" values="0 0 0 0 0 0 0 0 0 0 0 0 0 0 0 0 0 0 127 0" result="hardAlpha" />
                    <feOffset dy="-26" />
                    <feGaussianBlur stdDeviation="20" />
                    <feComposite in2="hardAlpha" operator="out" />
                    <feColorMatrix type="matrix" values="0 0 0 0 0 0 0 0 0 0 0 0 0 0 0 0 0 0 0.1 0" />
                    <feBlend mode="normal" in2="BackgroundImageFix" result="effect1_dropShadow_437_99" />
                    <feBlend mode="normal" in="SourceGraphic" in2="effect1_dropShadow_437_99" result="shape" />
                </filter>
                <linearGradient id="paint0_linear_437_99" x1="495" y1="0" x2="495" y2="701" gradientUnits="userSpaceOnUse">
                    <stop stop-color="#2E1065" />
                    <stop offset="1" stop-color="#2E1065" stop-opacity="0" />
                </linearGradient>
                <linearGradient id="paint1_linear_437_99" x1="495" y1="0" x2="495" y2="701" gradientUnits="userSpaceOnUse">
                    <stop stop-color="white" stop-opacity="0.2" />
                    <stop offset="1" stop-color="#4C1D95" stop-opacity="0" />
                </linearGradient>
                <linearGradient id="paint2_linear_437_99" x1="60" y1="322" x2="529.106" y2="526.131" gradientUnits="userSpaceOnUse">
                    <stop stop-color="#06B6D4" />
                    <stop offset="1" stop-color="#6366F1" />
                </linearGradient>
                <linearGradient id="paint3_linear_437_99" x1="729" y1="616" x2="668.311" y2="335.113" gradientUnits="userSpaceOnUse">
                    <stop stop-color="#9333EA" />
                    <stop offset="1" stop-color="#C084FC" />
                </linearGradient>
                <linearGradient id="paint4_linear_437_99" x1="188" y1="322" x2="354.5" y2="531.5" gradientUnits="userSpaceOnUse">
                    <stop stop-color="white" stop-opacity="0" />
                    <stop offset="1" stop-color="white" stop-opacity="0.5" />
                </linearGradient>
                <linearGradient id="paint5_linear_437_99" x1="815" y1="616" x2="648.5" y2="406.5" gradientUnits="userSpaceOnUse">
                    <stop stop-color="white" stop-opacity="0" />
                    <stop offset="1" stop-color="white" stop-opacity="0.5" />
                </linearGradient>
            </defs>
        </svg>